<svg width="16" height="16" viewBox="0 0 16 16" fill="none" xmlns="http://www.w3.org/2000/svg">
<g clip-path="url(#clip0_2089_3661)">
<path d="M12.6667 2.66675C13.0203 2.66675 13.3594 2.80722 13.6095 3.05727C13.8595 3.30732 14 3.64646 14 4.00008V12.0001C14 12.3537 13.8595 12.6928 13.6095 12.9429C13.3594 13.1929 13.0203 13.3334 12.6667 13.3334H3.33333C2.97971 13.3334 2.64057 13.1929 2.39052 12.9429C2.14048 12.6928 2 12.3537 2 12.0001V4.00008C2 3.64646 2.14048 3.30732 2.39052 3.05727C2.64057 2.80722 2.97971 2.66675 3.33333 2.66675H12.6667ZM12.6667 6.66675H3.33333V11.3334C3.33335 11.4967 3.3933 11.6543 3.50181 11.7763C3.61032 11.8984 3.75983 11.9763 3.922 11.9954L4 12.0001H12C12.1633 12.0001 12.3209 11.9401 12.4429 11.8316C12.5649 11.7231 12.6429 11.5736 12.662 11.4114L12.6667 11.3334V6.66675ZM4 4.00008C3.82319 4.00008 3.65362 4.07032 3.5286 4.19534C3.40357 4.32037 3.33333 4.48994 3.33333 4.66675C3.33333 4.84356 3.40357 5.01313 3.5286 5.13815C3.65362 5.26318 3.82319 5.33341 4 5.33341C4.17681 5.33341 4.34638 5.26318 4.4714 5.13815C4.59643 5.01313 4.66667 4.84356 4.66667 4.66675C4.66667 4.48994 4.59643 4.32037 4.4714 4.19534C4.34638 4.07032 4.17681 4.00008 4 4.00008ZM6 4.00008C5.82319 4.00008 5.65362 4.07032 5.5286 4.19534C5.40357 4.32037 5.33333 4.48994 5.33333 4.66675C5.33333 4.84356 5.40357 5.01313 5.5286 5.13815C5.65362 5.26318 5.82319 5.33341 6 5.33341C6.17681 5.33341 6.34638 5.26318 6.4714 5.13815C6.59643 5.01313 6.66667 4.84356 6.66667 4.66675C6.66667 4.48994 6.59643 4.32037 6.4714 4.19534C6.34638 4.07032 6.17681 4.00008 6 4.00008ZM8 4.00008C7.82319 4.00008 7.65362 4.07032 7.5286 4.19534C7.40357 4.32037 7.33333 4.48994 7.33333 4.66675C7.33333 4.84356 7.40357 5.01313 7.5286 5.13815C7.65362 5.26318 7.82319 5.33341 8 5.33341C8.17681 5.33341 8.34638 5.26318 8.4714 5.13815C8.59643 5.01313 8.66667 4.84356 8.66667 4.66675C8.66667 4.48994 8.59643 4.32037 8.4714 4.19534C8.34638 4.07032 8.17681 4.00008 8 4.00008Z" fill="#75FF8C"/>
</g>
<defs>
<clipPath id="clip0_2089_3661">
<rect width="16" height="16" fill="white"/>
</clipPath>
</defs>
</svg>
