<svg width="11" height="11" viewBox="0 0 11 11" fill="none" xmlns="http://www.w3.org/2000/svg">
<g clip-path="url(#clip0_2089_3649)">
<path d="M10.0833 4.58325V7.79159C10.0833 8.15626 9.93843 8.50599 9.68056 8.76386C9.4227 9.02172 9.07297 9.16659 8.70829 9.16659H2.29163C1.92695 9.16659 1.57722 9.02172 1.31935 8.76386C1.06149 8.50599 0.916626 8.15626 0.916626 7.79159V4.58325H10.0833ZM8.24996 6.41659H6.87496C6.7534 6.41659 6.63682 6.46487 6.55087 6.55083C6.46491 6.63678 6.41663 6.75336 6.41663 6.87492C6.41663 6.99648 6.46491 7.11306 6.55087 7.19901C6.63682 7.28496 6.7534 7.33325 6.87496 7.33325H8.24996C8.37152 7.33325 8.4881 7.28496 8.57405 7.19901C8.66 7.11306 8.70829 6.99648 8.70829 6.87492C8.70829 6.75336 8.66 6.63678 8.57405 6.55083C8.4881 6.46487 8.37152 6.41659 8.24996 6.41659ZM8.70829 1.83325C9.07297 1.83325 9.4227 1.97812 9.68056 2.23598C9.93843 2.49384 10.0833 2.84358 10.0833 3.20825V3.66659H0.916626V3.20825C0.916626 2.84358 1.06149 2.49384 1.31935 2.23598C1.57722 1.97812 1.92695 1.83325 2.29163 1.83325H8.70829Z" fill="#75FF8C"/>
</g>
<defs>
<clipPath id="clip0_2089_3649">
<rect width="11" height="11" fill="white"/>
</clipPath>
</defs>
</svg>
