<svg width="10" height="10" viewBox="0 0 10 10" fill="none" xmlns="http://www.w3.org/2000/svg">
<path fill-rule="evenodd" clip-rule="evenodd" d="M0.00124991 3.125H9.99875C9.99125 1.76562 9.93125 1.02938 9.45063 0.549375C8.90188 1.11759e-07 8.0175 0 6.25 0H3.75C1.9825 0 1.09813 1.11759e-07 0.549375 0.549375C0.0687501 1.02938 0.00874991 1.76562 0.00124991 3.125ZM10 4.375H0V6.25C0 8.0175 1.11759e-07 8.90188 0.549375 9.45063C1.09813 10 1.9825 10 3.75 10H6.25C8.0175 10 8.90188 10 9.45063 9.45063C10 8.90188 10 8.0175 10 6.25V4.375Z" fill="#75FF8C"/>
</svg>
