<svg width="25" height="24" viewBox="0 0 25 24" fill="none" xmlns="http://www.w3.org/2000/svg">
<path d="M13.4769 2.21704L21.9769 6.96704C22.2264 7.09161 22.4363 7.28328 22.5829 7.52051C22.7295 7.75775 22.8071 8.03116 22.8069 8.31004V9.75004C22.8069 10.44 22.2469 11 21.5569 11H20.8069V19H21.8069C22.0721 19 22.3265 19.1054 22.514 19.2929C22.7015 19.4805 22.8069 19.7348 22.8069 20C22.8069 20.2653 22.7015 20.5196 22.514 20.7071C22.3265 20.8947 22.0721 21 21.8069 21H3.80688C3.54167 21 3.28731 20.8947 3.09978 20.7071C2.91224 20.5196 2.80688 20.2653 2.80688 20C2.80688 19.7348 2.91224 19.4805 3.09978 19.2929C3.28731 19.1054 3.54167 19 3.80688 19H4.80688V11H4.05688C3.36688 11 2.80688 10.44 2.80688 9.75004V8.31004C2.80688 7.78804 3.07688 7.30804 3.51288 7.03604L12.1359 2.21704C12.3442 2.11284 12.5739 2.05859 12.8069 2.05859C13.0398 2.05859 13.2686 2.11284 13.4769 2.21704ZM18.8069 11H6.80688V19H9.80688V13H11.8069V19H13.8069V13H15.8069V19H18.8069V11ZM12.8069 4.11804L4.80688 8.61804V9.00004H20.8069V8.61804L12.8069 4.11804ZM12.8069 6.00004C13.0721 6.00004 13.3265 6.1054 13.514 6.29294C13.7015 6.48047 13.8069 6.73483 13.8069 7.00004C13.8069 7.26526 13.7015 7.51961 13.514 7.70715C13.3265 7.89469 13.0721 8.00004 12.8069 8.00004C12.5417 8.00004 12.2873 7.89469 12.0998 7.70715C11.9122 7.51961 11.8069 7.26526 11.8069 7.00004C11.8069 6.73483 11.9122 6.48047 12.0998 6.29294C12.2873 6.1054 12.5417 6.00004 12.8069 6.00004Z" fill="#1D9B5E"/>
</svg>
