<svg width="233" height="362" viewBox="0 0 233 362" fill="none" xmlns="http://www.w3.org/2000/svg">
<g filter="url(#filter0_d_237_94)">
<path d="M17 149.217C17 140.933 23.7157 134.217 32 134.217H201C209.284 134.217 216 140.933 216 149.217V326.383C216 334.667 209.284 341.383 201 341.383H32C23.7157 341.383 17 334.667 17 326.383V149.217Z" fill="#A2DE49"/>
<path d="M201 129.717C211.77 129.717 220.5 138.448 220.5 149.217V326.382C220.5 337.152 211.77 345.882 201 345.882H32C21.2304 345.882 12.5 337.152 12.5 326.382V149.217C12.5 138.448 21.2304 129.717 32 129.717H201Z" stroke="#F1F5EB" stroke-width="9"/>
</g>
<mask id="mask0_237_94" style="mask-type:alpha" maskUnits="userSpaceOnUse" x="17" y="0" width="199" height="342">
<rect x="17" width="198.773" height="341.383" rx="15" fill="#D9D9D9"/>
</mask>
<g mask="url(#mask0_237_94)">
<path opacity="0.34" d="M-20.0001 195.8L6.39373 169.899C26.5787 150.091 61.5634 221.616 76.1422 196.347C76.8151 195.181 107.376 164.744 131.965 140.356C140.325 132.064 155.446 137.291 161.21 150.449C167.1 163.895 182.687 168.97 190.892 160.113L244.475 102.277" stroke="#F1F5EB" stroke-width="28"/>
</g>
<defs>
<filter id="filter0_d_237_94" x="0.5" y="121.717" width="232" height="240.166" filterUnits="userSpaceOnUse" color-interpolation-filters="sRGB">
<feFlood flood-opacity="0" result="BackgroundImageFix"/>
<feColorMatrix in="SourceAlpha" type="matrix" values="0 0 0 0 0 0 0 0 0 0 0 0 0 0 0 0 0 0 127 0" result="hardAlpha"/>
<feOffset dy="4"/>
<feGaussianBlur stdDeviation="3.75"/>
<feComposite in2="hardAlpha" operator="out"/>
<feColorMatrix type="matrix" values="0 0 0 0 0 0 0 0 0 0 0 0 0 0 0 0 0 0 0.15 0"/>
<feBlend mode="normal" in2="BackgroundImageFix" result="effect1_dropShadow_237_94"/>
<feBlend mode="normal" in="SourceGraphic" in2="effect1_dropShadow_237_94" result="shape"/>
</filter>
</defs>
</svg>
