<svg width="1280" height="709" viewBox="0 0 1280 709" fill="none" xmlns="http://www.w3.org/2000/svg">
<path d="M1487.52 -8H-75.5898V708H1487.52V-8Z" fill="#F1FEF4"/>
<path d="M1487.52 -8H-75.5898V708H1487.52V-8Z" fill="#F1FEF4"/>
<path d="M291.628 706.955C285.628 704.689 283.95 702.469 285.375 698.685C286.035 696.932 287.304 695.499 288.193 695.499C289.083 695.499 292.978 697.564 296.848 700.09C300.719 702.615 305.452 705.255 307.366 705.957L310.846 707.233L306.565 707.327C304.21 707.378 300.755 707.645 298.888 707.917C297.02 708.191 293.753 707.758 291.628 706.955ZM278.011 695.321C276.881 694.683 274.998 694.468 273.825 694.843C272.349 695.316 271.209 694.612 270.117 692.551C269.249 690.915 267.695 689.283 266.662 688.925C264.292 688.102 259.325 679.978 256.561 672.404C255.164 668.578 253.287 665.934 251.057 664.654C247.102 662.383 246.818 661.352 249.88 660.372C253.383 659.249 254.035 653.016 251.086 648.835C249.679 646.841 248.938 644.499 249.362 643.383C249.863 642.067 248.482 639.757 245.138 636.318C240.918 631.977 240.138 630.399 239.949 625.825C239.827 622.864 239.112 619.695 238.362 618.781C237.416 617.631 237.223 613.502 237.734 605.34C238.287 596.494 237.965 591.034 236.44 583.425C234.176 572.124 233.019 551.069 233.607 531.86C233.733 527.761 233.207 522.134 232.438 519.355C230.566 512.589 221.954 504.046 211.31 498.4C203.697 494.361 202.626 493.327 199.65 487.123C197.848 483.367 194.403 477.752 191.996 474.647C189.588 471.542 186.971 466.981 186.179 464.513C183.666 456.678 179.236 448.806 176.217 446.809C174.61 445.746 172.777 442.982 172.144 440.667C171.119 436.921 171.389 435.875 174.596 431.169C178.074 426.067 178.115 425.859 175.765 425.238C169.99 423.714 172.419 415.923 182.784 402.718C189.674 393.942 191.692 387.256 189.783 379.533C189.056 376.589 188.405 373.51 188.336 372.691C188.268 371.871 187.75 371.201 187.186 371.201C186.621 371.201 186.73 370.125 187.427 368.811C188.5 366.786 188.229 366.208 185.649 365.021C181.889 363.291 176.211 365.001 176.189 367.87C176.162 371.31 174.664 371.563 169.723 368.964C167.076 367.57 164.327 366.432 163.614 366.432C162.901 366.432 160.127 364.527 157.45 362.199C154.773 359.871 151.918 357.435 151.106 356.786C150.294 356.138 149.63 354.371 149.63 352.858C149.63 351.346 148.587 349.157 147.312 347.992C146.037 346.828 144.385 344.012 143.641 341.736C142.663 338.745 141.931 337.958 140.999 338.899C139.053 340.864 136.172 340.491 129.18 337.369C125.524 335.738 121.716 332.95 120.195 330.794C118.743 328.735 115.968 326.223 114.03 325.211C110.83 323.54 110.03 323.553 105.37 325.35L100.235 327.33L84.4812 319.623C74.7902 314.883 67.2692 310.361 64.9392 307.874C61.3272 304.018 61.2102 303.6 62.4122 298.82C63.5132 294.441 63.3262 293.086 60.9322 288.092C59.4242 284.948 56.1312 280.12 53.6132 277.362C51.0952 274.604 49.3202 271.881 49.6702 271.31C50.0202 270.739 48.2462 266.891 45.7282 262.758C42.8682 258.064 40.8502 253.035 40.3492 249.354C39.7062 244.637 38.9572 243.193 36.5862 242.103C34.0732 240.947 33.3702 241.095 31.9312 243.079C29.9042 245.873 30.4802 248.824 34.9622 258.6C36.7832 262.573 38.6652 268.463 39.1442 271.688C39.6232 274.912 41.0382 279.576 42.2892 282.05C45.2512 287.911 43.3382 287.808 38.6672 281.854C35.9122 278.343 35.1682 276.417 35.7162 274.216C36.3002 271.865 35.7252 270.732 32.8622 268.595C28.5192 265.353 27.6002 263.263 29.1952 260.255C30.1252 258.5 29.6992 256.575 27.3362 251.87C24.9372 247.09 24.4362 244.775 25.0302 241.226C26.0002 235.424 23.4222 230.174 18.6155 228.163C15.8403 227.003 14.8836 225.705 14.3181 222.332C13.918 219.946 13.1518 216.254 12.6154 214.128C12.0574 211.917 12.098 209.977 12.7103 209.596C13.2989 209.228 12.9137 207.592 11.8544 205.961C10.2943 203.557 10.1874 202.419 11.292 199.971C12.042 198.31 12.3251 196.411 11.9211 195.751C11.5171 195.091 12.5239 193.119 14.1584 191.37C15.7929 189.619 17.969 186.129 18.9941 183.613C20.0193 181.097 23.1784 176.433 26.0142 173.249C28.8502 170.065 32.4462 164.487 34.0042 160.854C36.1672 155.811 37.4352 154.244 39.3642 154.228C40.7532 154.218 41.8162 154.878 41.7262 155.698C41.3502 159.114 44.0252 158.062 47.0302 153.612C48.8022 150.988 49.7582 148.663 49.1542 148.445C48.5512 148.226 48.0582 147.24 48.0582 146.252C48.0582 145.265 45.6132 142.057 42.6242 139.126C37.6682 134.263 37.3492 133.618 38.9972 131.78C40.3332 130.291 40.4902 129.198 39.5992 127.592C38.0342 124.768 40.5042 118.447 43.1812 118.421C44.2872 118.41 44.6032 118.031 43.9242 117.527C42.4002 116.397 41.7102 113.831 41.9242 110.093C42.2662 104.123 40.9722 101.627 36.5752 99.7722C34.2042 98.7718 30.5852 96.661 28.5332 95.0812C26.4822 93.5013 23.8792 92.2092 22.75 92.2092C21.6204 92.2092 16.4856 91.1243 11.3394 89.7979C3.06555 87.6653 1.60735 87.5811 -1.25874 89.0702C-7.19824 92.1557 -13.4909 93.4135 -16.0564 92.0275C-17.9806 90.9882 -20.0806 91.6303 -27.4032 95.4971C-32.3453 98.1066 -38.249 100.646 -40.5226 101.141C-42.7961 101.637 -47.1472 103.308 -50.1916 104.857C-58.8271 109.249 -71.1974 113.678 -74.6191 113.601C-76.8274 113.551 -75.3344 112.573 -69.4589 110.221C-59.4734 106.224 -49.213 101.018 -48.2639 99.4684C-47.095 97.5584 -49.6323 96.874 -52.6803 98.2762C-54.9244 99.3079 -56.3074 99.211 -58.8969 97.8421L-62.2274 96.0806L-58.6046 94.1888C-54.5092 92.0507 -53.2209 89.6323 -54.1618 85.8477C-55.0731 82.1823 -50.0485 79.4891 -39.2241 77.8411C-33.4081 76.9557 -28.9866 75.4818 -26.0098 73.4362C-20.7606 69.8289 -21.6624 67.1026 -27.3221 69.4691C-30.0013 70.5894 -31.9529 70.6017 -35.9207 69.5231C-40.7427 68.2124 -40.9145 68.0253 -38.7577 66.4332C-35.1487 63.7693 -27.6847 62.1669 -22.7806 63.0034C-19.6774 63.5326 -17.1355 63.1621 -14.5267 61.8003L-10.757 59.8324L-13.2385 57.1659C-14.6034 55.6993 -15.7201 54.1841 -15.7201 53.7986C-15.7201 52.6924 -8.61004 50.4801 -5.05484 50.4801C-3.28034 50.4801 1.58426 49.1833 5.75536 47.5984C9.92645 46.0135 19.5499 43.8498 27.1402 42.7901C39.4522 41.0714 42.0592 41.0504 51.2912 42.5957C56.9832 43.5485 64.8291 44.6847 68.7262 45.1208C72.6241 45.5569 79.5222 46.9411 84.0572 48.1969C94.5872 51.1134 101.446 51.0778 113.21 48.0457C118.405 46.7067 123.655 45.9316 124.878 46.3233C126.1 46.7149 128.178 46.4528 129.496 45.7409C131.312 44.7598 132.72 44.8786 135.311 46.231C137.652 47.4528 140.541 47.8016 144.475 47.337C148.625 46.8469 152.259 47.3545 157.565 49.1654C161.604 50.5443 166.09 51.6724 167.534 51.6724C170.092 51.6724 170.1 51.7162 167.867 53.3756C165.676 55.0028 165.67 55.1164 167.727 55.921C168.911 56.3841 173.021 56.4316 176.86 56.0265C183.794 55.2949 183.854 55.3155 185.788 59.0898L187.734 62.8897L190.261 59.6909C191.713 57.8526 195.164 55.7702 198.373 54.795C203.225 53.3212 204.697 53.3261 209.569 54.8323C213.009 55.8956 217.125 56.283 220.208 55.8335C224.134 55.2611 225.957 55.6176 228.518 57.4587C231.752 59.7831 231.841 59.7844 234.709 57.5405C236.31 56.2883 239.604 54.7058 242.028 54.0237C247.834 52.3909 249.803 48.9116 246.316 46.4466C243.851 44.7034 243.959 44.5704 250.439 41.3619C255.273 38.9689 257.449 38.4255 258.391 39.3766C259.333 40.3275 259.324 41.3736 258.356 43.1985C256.707 46.3088 258.76 51.0101 261.332 50.0139C262.256 49.6557 263.79 49.6637 264.74 50.0318C266.232 50.6097 266.208 51.0998 264.564 53.6324C260.023 60.6286 270.204 58.6463 277.096 51.1923C279.898 48.1617 284.24 47.2429 288.309 48.8193C290.937 49.8372 290.691 50.6707 286.339 55.4879C281.152 61.2286 278.498 62.4027 270.709 62.4027C266.944 62.4027 262.499 63.2261 260.428 64.3072C257.561 65.8038 256.163 65.9283 253.902 64.8882C249.687 62.9494 248.219 64.5631 251.243 67.8125L253.824 70.586L248.675 72.0614C245.842 72.8729 241.133 73.6153 238.21 73.7112C233.971 73.8502 232.894 74.3147 232.887 76.0063C232.881 77.4538 230.819 78.9772 226.391 80.8044C212.044 86.7248 199.873 97.4 204.279 100.198C205.105 100.722 206.415 102.612 207.192 104.398C208.086 106.453 209.809 107.886 211.891 108.307C213.7 108.673 218.368 110.558 222.266 112.495C226.163 114.433 230.947 116.368 232.895 116.797C238.26 117.977 238.307 118.102 235.809 124.502C233.671 129.976 233.628 130.757 235.284 133.992C236.277 135.93 237.74 137.497 238.536 137.473C242.406 137.36 246.034 133.755 248.289 127.782C250.438 122.091 251.417 121.029 257.586 117.703C266.689 112.795 270.474 107.96 269.466 102.532C268.809 98.9959 269.15 98.1662 272.148 96.0119C274.037 94.6532 276.538 91.4032 277.706 88.7887C280.317 82.9445 284.512 80.9186 291.586 82.086C297.859 83.1213 305.278 87.142 306.174 89.9922C306.542 91.1622 306.237 93.2631 305.495 94.6612C304.373 96.7791 304.585 97.6735 306.765 100.017L309.383 102.829L313.658 100.593C316.009 99.3624 319.777 96.9629 322.032 95.2599L326.131 92.1628L327.094 94.7915C327.623 96.236 327.774 98.1631 327.428 99.0737C327.082 99.9832 327.351 101.769 328.026 103.042C328.785 104.473 328.844 106.094 328.181 107.29C327.433 108.639 327.933 110.688 329.833 114.065C332.557 118.906 332.557 118.909 330.165 120.6C327.019 122.826 329.038 125.185 332.491 123.319C335.922 121.466 339.848 121.707 342.27 123.919C345.849 127.19 342.873 131.101 333.371 135.614C323.036 140.523 318.43 141.495 304.941 141.615C294.98 141.704 293.661 142.025 283.977 146.711C278.293 149.462 273.642 152.185 273.642 152.761C273.642 155.221 275.433 155.007 282.305 151.726C286.353 149.792 291.572 148.248 294.057 148.248C298.303 148.247 298.458 148.379 297.132 150.879C296.364 152.328 294.708 154.353 293.451 155.381C291.476 156.995 291.36 157.676 292.597 160.416C294.451 164.524 299.294 166.502 305.087 165.515L309.665 164.735L306.145 167.186C304.209 168.535 301.02 169.988 299.058 170.416C297.097 170.844 293.066 172.428 290.1 173.936C287.09 175.466 284.066 176.277 283.253 175.77C281.384 174.603 283.357 172.854 289.43 170.293C294.831 168.014 293.967 165.594 288.147 166.697C285.88 167.126 278.528 169.921 271.81 172.909C261.323 177.572 259.494 178.803 258.883 181.609C258.133 185.057 255.573 186.689 246.572 189.454C243.701 190.335 239.98 192.466 238.304 194.189C236.629 195.912 233.42 198.491 231.174 199.922C228.928 201.351 226.777 203.857 226.395 205.488C225.765 208.178 225.619 208.242 224.83 206.17C223.352 202.288 221.125 206.083 220.997 212.703C220.866 219.486 217.46 224.112 209.991 227.654C202.333 231.286 191.436 239.87 189.228 244.008C187.279 247.662 187.197 249.086 188.398 258.477C189.519 267.238 189.452 269.437 187.977 272.315C186.876 274.465 185.592 275.492 184.523 275.078C181.989 274.097 178.889 263.569 179.758 258.895C180.361 255.647 179.961 254.417 177.564 252.143C175.632 250.312 173.849 249.616 172.334 250.101C171.068 250.506 167.491 249.738 164.38 248.391C159.614 246.329 158.093 246.156 154.69 247.29C152.383 248.058 150.09 249.881 149.34 251.544C148.223 254.018 147.483 254.336 144.399 253.667C142.404 253.234 139.337 252.138 137.582 251.234C133.262 249.006 130.843 249.161 125.99 251.978C123.726 253.292 119.108 255.807 115.726 257.566C111.839 259.588 109.17 261.889 108.47 263.821C107.861 265.502 105.683 272.054 103.63 278.381L99.8982 289.886L101.804 297.312C105.307 310.955 110.179 315.039 120.332 312.841C127.985 311.184 132.582 307.826 134.271 302.659C135.344 299.377 136.502 298.292 139.967 297.321C145.181 295.858 147.359 295.804 149.361 297.087C151.014 298.146 150.433 299.889 143.033 316.062C137.956 327.159 138.321 328.151 147.02 326.884C154.946 325.731 162.19 326.617 163.036 328.843C163.366 329.711 162.83 335.567 161.844 341.856C160.08 353.108 160.093 353.36 162.632 357.506C164.051 359.824 166.711 362.503 168.544 363.46C171.47 364.987 172.388 364.983 176.069 363.431C181.919 360.963 185.095 361.225 189.158 364.506C192.407 367.13 192.866 367.204 195.419 365.515C196.935 364.513 199.002 362.029 200.013 359.995C202.294 355.409 206.136 352.186 209.363 352.151C210.712 352.137 213.063 350.783 214.589 349.143C217.687 345.814 223.143 344.73 220.476 347.973C218.238 350.695 216.959 359.45 218.401 362.171C219.602 364.436 219.699 364.423 221.884 361.698C223.44 359.758 223.754 358.514 222.903 357.656C220.875 355.608 221.485 353.906 225.26 351.09C229.179 348.164 232.211 348.465 235.593 352.112C238.072 354.787 251.312 358.402 255.106 357.441C260.884 355.978 276.497 365.561 282.363 374.172C285.156 378.272 294.08 382.398 298.003 381.403C306.075 379.359 317.141 387.522 319.728 397.431C320.499 400.382 321.661 403.13 322.31 403.538C324.034 404.622 321.452 408.904 315.81 414.323C312.205 417.784 311.344 419.275 312.358 420.299C313.372 421.322 315.039 420.425 319.042 416.7C324.865 411.283 326.807 410.733 329.724 413.678C331.498 415.468 331.444 415.833 329.012 418.446C327.564 420.003 325.541 421.31 324.518 421.352C323.439 421.395 323.875 421.918 325.555 422.595C327.862 423.525 329.066 423.264 331.46 421.31C337.696 416.224 339.162 415.98 344.701 419.105C348.303 421.135 349.745 422.681 349.563 424.316C349.058 428.863 350.12 429.87 353.243 427.804C355.725 426.163 357.427 426.085 365.731 427.233C374.563 428.453 375.72 428.94 379.957 433.218C383.103 436.394 386.642 438.483 391.087 439.787C397.056 441.538 397.704 442.072 398.787 446.13C400.356 452.015 398.518 458.544 393.544 464.746C391.42 467.395 388.816 471.285 387.757 473.389C386.699 475.493 384.449 478.612 382.757 480.321C379.892 483.213 379.733 483.936 380.447 490.802C381.842 504.216 375.342 529.242 369.073 534.593C367.032 536.336 365.285 536.745 362.049 536.24C359.388 535.823 357.419 536.091 356.899 536.941C356.436 537.697 353.857 539.292 351.168 540.486C348.478 541.68 344.475 544.212 342.271 546.111C338.456 549.401 338.328 549.766 339.612 553.693C341.092 558.22 340.095 563.581 336.923 568.152C335.897 569.631 335.058 572.146 335.058 573.741C335.058 575.337 333.826 578.303 332.32 580.332C330.814 582.361 327.908 587.005 325.863 590.654C320.833 599.628 317.808 601.184 310.513 598.544C304.183 596.253 300.807 595.98 300.807 597.758C300.807 598.428 302.069 599.555 303.611 600.265C305.153 600.975 307.557 603.863 308.952 606.682C311.03 610.883 311.25 612.34 310.167 614.74C308.489 618.457 302.075 621.577 296.112 621.577C290.831 621.577 289.521 622.881 291.345 626.322C292.471 628.446 291.714 631.863 289.536 634.482C289.36 634.694 287.511 633.978 285.427 632.89C280.453 630.294 278.692 631.948 281.206 636.856C282.228 638.852 284.173 640.839 285.526 641.273C287.853 642.018 287.878 642.184 285.987 644.294C284.885 645.523 284.313 647.389 284.715 648.445C285.146 649.579 284.184 652.03 282.358 654.447C279.39 658.376 279.347 658.647 281.25 661.579C282.338 663.256 284.035 664.94 285.022 665.322C288.579 666.7 289.168 671.407 286.456 676.774C283.739 682.15 283.322 687.541 285.425 690.099C287.337 692.425 280.904 696.955 278.011 695.321ZM190.967 178.937C194.123 172.28 199.995 167.323 204.724 167.323C208.128 167.323 208.168 167.88 205.052 171.88L202.601 175.025L205.115 177.08C207.141 178.736 208.186 178.879 210.496 177.817C212.072 177.092 213.688 175.462 214.087 174.194C214.629 172.47 215.511 172.066 217.59 172.593C219.515 173.082 220.72 172.664 221.512 171.235C223.912 166.906 217.805 161.37 213.309 163.799C210.093 165.537 205.89 162.079 206.787 158.432C207.119 157.082 206.435 154.728 205.251 153.151C202.81 149.898 199.096 149.556 190.967 151.833C188.044 152.653 184.711 153.286 183.56 153.241C182.409 153.196 181.776 153.663 182.153 154.28C182.531 154.896 182.409 155.412 181.884 155.426C181.358 155.441 179.606 156.479 177.989 157.733L175.05 160.012L178.351 161.279C180.931 162.269 182.452 162.128 185.318 160.632C188.686 158.873 189.31 158.874 192.986 160.644C195.2 161.71 198.223 162.257 199.754 161.869C201.275 161.484 202.846 161.701 203.245 162.351C203.652 163.016 201.988 163.872 199.445 164.306C192.533 165.484 188.942 168.391 183.928 176.86C179.741 183.936 179.5 184.789 181.17 186.659C182.807 188.495 183.26 188.523 185.506 186.937C186.886 185.963 189.343 182.363 190.967 178.937ZM212.425 186.297C216.63 184.132 217.034 183.587 215.552 182.091C214.071 180.596 213.135 180.693 208.314 182.845C202.655 185.373 200.859 188.783 205.187 188.783C206.512 188.783 209.769 187.665 212.425 186.297ZM233.367 177.287C235.827 175.548 235.918 175.207 234.183 174.227C231.629 172.784 224.037 175.27 224.037 177.55C224.037 179.898 229.908 179.733 233.367 177.287ZM322.066 692.16C322.066 691.635 322.704 690.562 323.483 689.775C324.263 688.988 324.454 688.344 323.909 688.344C323.363 688.344 322.28 689.225 321.501 690.3C320.383 691.843 319.61 691.976 317.827 690.932C316.553 690.186 316.244 689.593 317.116 689.573C317.967 689.553 318.334 689 317.932 688.344C317.161 687.086 319.188 686.742 325.019 687.144C330.223 687.502 330.746 688.27 327.53 690.824C324.533 693.203 322.066 693.807 322.066 692.16ZM1308.42 662.237C1305.04 660.076 1312.07 655.304 1329.52 647.926C1334.39 645.864 1341.82 641.556 1346.02 638.349C1353.16 632.897 1353.75 632.66 1355.17 634.701C1357.32 637.8 1356.05 640.042 1350.8 642.431C1348.3 643.573 1345.14 645.787 1343.79 647.349C1342.45 648.913 1340.28 650.192 1338.98 650.192C1337.68 650.192 1334.62 651.999 1332.18 654.208C1323.84 661.767 1313.27 665.338 1308.42 662.237ZM1225.76 646.749C1224.53 645.963 1224.46 645.156 1225.46 643.268C1226.18 641.916 1226.77 639.129 1226.77 637.075C1226.77 633.716 1227.04 633.435 1229.42 634.283C1230.89 634.802 1233.94 635.297 1236.22 635.383C1238.49 635.469 1240.76 635.616 1241.26 635.712C1243.22 636.082 1237.99 642.094 1233.29 644.875C1227.69 648.188 1227.92 648.131 1225.76 646.749ZM1362.24 636.323C1361.83 635.908 1362.8 634.529 1364.4 633.258C1366.81 631.344 1367.09 630.535 1366.04 628.548C1364.51 625.672 1366.78 622.586 1372.02 620.392C1376.08 618.693 1377.11 615.246 1376.02 606.925C1375.27 601.2 1375.36 600.842 1377.19 602.368C1378.62 603.566 1378.98 605.075 1378.46 607.828C1377.9 610.844 1378.41 612.412 1380.9 615.402C1383.59 618.633 1384.39 618.984 1386.49 617.851C1388.57 616.724 1388.82 616.827 1388.16 618.556C1387.74 619.669 1387.39 620.791 1387.39 621.048C1387.39 621.306 1385.67 622.409 1383.55 623.5C1381.44 624.591 1377.32 627.478 1374.4 629.914C1369.65 633.876 1364.76 637.077 1363.46 637.077C1363.2 637.077 1362.65 636.738 1362.24 636.323ZM1237.34 620.924C1234.86 618.251 1234.4 618.148 1232.01 619.729C1228.96 621.743 1223.24 620.566 1218.65 616.982C1216.21 615.07 1216.04 614.454 1217.3 612.075C1218.38 610.044 1218.41 608.621 1217.44 606.467C1216.72 604.879 1216.14 602.533 1216.14 601.252C1216.14 598.364 1214.28 598.226 1212.74 601.001C1212.11 602.143 1211.25 602.735 1210.84 602.318C1210.42 601.9 1211.79 599.598 1213.88 597.2C1219.01 591.299 1217.01 589.698 1210.23 594.281C1207.31 596.255 1204.73 598.413 1204.5 599.075C1204.27 599.737 1202.86 597.694 1201.38 594.534C1199.77 591.108 1196.99 587.666 1194.49 586.004C1190.74 583.509 1189.46 583.303 1182.25 584.028C1171.68 585.089 1161.48 587.721 1154.81 591.109C1151.77 592.65 1145.85 594.226 1141.28 594.71C1136.81 595.183 1129.71 596.881 1125.49 598.484C1119.04 600.934 1117.2 601.192 1113.94 600.104C1109.55 598.643 1107.73 595.633 1110.57 594.534C1111.59 594.136 1113.46 591.401 1114.71 588.454C1116.71 583.738 1116.82 582.27 1115.63 576.176C1114.65 571.134 1114.62 566.362 1115.53 558.6C1116.22 552.74 1116.48 546.791 1116.12 545.381C1115.75 543.97 1116.32 540.518 1117.39 537.708C1119.26 532.755 1119.71 532.431 1132.38 527.013C1139.57 523.941 1146.93 521.427 1148.73 521.427C1153.61 521.427 1159.66 516.737 1162.99 510.367C1165.05 506.429 1166.48 504.931 1167.71 505.413C1171.16 506.759 1171.84 506.494 1171.58 503.912C1171.41 502.251 1172.11 501.044 1173.52 500.594C1174.74 500.204 1176.98 498.033 1178.51 495.769C1180.08 493.452 1183.3 490.84 1185.89 489.792C1190.2 488.045 1190.63 488.071 1192.97 490.224C1197.3 494.194 1200.37 495.353 1201.83 493.572C1202.54 492.706 1202.79 491.656 1202.37 491.239C1201.02 489.874 1207.21 482.039 1210.23 481.287C1211.86 480.882 1215.19 479.537 1217.64 478.297C1221.46 476.364 1222.81 476.236 1227.09 477.397C1236.32 479.9 1236.63 480.308 1233.2 485.548C1228.78 492.285 1229.95 494.92 1240.78 502.618C1245.79 506.172 1250.51 508.868 1251.28 508.609C1252.05 508.35 1254.48 505.629 1256.68 502.561C1259.69 498.382 1260.85 495.343 1261.33 490.427C1262.02 483.446 1265.32 473.736 1267.02 473.736C1267.58 473.736 1268.87 476.608 1269.88 480.117C1270.89 483.627 1273 487.722 1274.58 489.218C1278.27 492.715 1280.41 502.494 1278.76 508.271C1277.66 512.099 1277.87 512.714 1281.63 516.617C1283.86 518.934 1287.39 524.586 1289.48 529.176C1291.56 533.766 1295.31 540.261 1297.82 543.609L1302.38 549.696L1301.08 559.1C1300.14 565.923 1298.69 570.471 1295.78 575.667C1291.33 583.626 1284.68 591.22 1281.17 592.345C1279.91 592.748 1276.98 595.736 1274.67 598.982C1272.36 602.229 1269.95 604.885 1269.32 604.885C1268.68 604.885 1265.98 607.672 1263.31 611.078C1258.86 616.757 1258.05 617.277 1253.41 617.365C1249.86 617.432 1247.13 618.406 1244.21 620.655L1240.06 623.848L1237.34 620.924ZM661.43 595.856C658.929 593.331 658.511 592.04 659.07 588.562C659.596 585.289 659.095 583.365 656.848 580.027C655.253 577.657 653.947 575.134 653.947 574.421C653.947 573.709 651.859 570.3 649.306 566.845C645.361 561.507 644.55 559.375 643.9 552.621C642.752 540.704 638.982 527.805 633.916 518.457C631.425 513.861 629.033 507.893 628.599 505.195C627.676 499.455 629.985 490.912 635.257 480.562L638.764 473.676L636.793 467.687C635.691 464.337 635.152 460.373 635.571 458.689C636.061 456.719 635.534 454.372 634.046 451.891C632.796 449.807 630.939 445.151 629.92 441.544C628.559 436.727 626.662 433.595 622.771 429.74C615.285 422.327 614.312 419.408 616.635 411.342C621.364 394.919 616.255 385.341 603.774 387.23C598.915 387.966 598.729 387.874 598.042 384.409C597.515 381.75 596.088 380.186 592.503 378.34C587.844 375.94 585.851 375.931 580.13 378.283C578.831 378.817 573.516 380.669 568.32 382.397C560.506 384.996 558.159 385.331 554.758 384.335C551.536 383.392 548.822 383.635 542.228 385.462C535.414 387.349 532.944 387.551 529.263 386.526C521.581 384.384 508.383 372.376 506.506 365.819C505.053 360.745 496.018 348.92 492.943 348.068C490.989 347.527 490.749 347.108 491.945 346.329C493.148 345.545 492.939 345.148 491.059 344.651C488.074 343.864 487.777 341.402 490.664 341.375C492.431 341.36 492.473 341.19 490.959 340.201C489.844 339.474 489.72 339.04 490.624 339.027C491.562 339.016 491.205 337.545 489.596 334.792C487.33 330.916 487.283 330.403 489.014 328.473C494.298 322.579 495.456 309.889 491.439 301.893C489.521 298.076 490.754 292.803 494.846 287.322C496.387 285.257 499.395 280.235 501.531 276.162C505.267 269.035 513.595 259.127 515.849 259.127C518.344 259.127 526.392 250.393 526.392 247.687C526.392 241.574 530.011 235.481 535.913 231.658C539.084 229.604 542.8 226.092 544.17 223.853C546.974 219.274 547.371 219.124 550.636 221.422C551.917 222.323 555.101 223.422 557.711 223.864C561.692 224.538 563.595 224.053 569.522 220.853C579.72 215.348 586.022 213.973 597.691 214.708C605.387 215.192 608.851 214.882 612.582 213.375C618.075 211.156 622.825 212.47 621.539 215.853C621.153 216.868 621.389 218.372 622.063 219.193C622.913 220.226 622.906 221.705 622.042 223.999C620.956 226.881 621.197 227.739 623.886 230.573C625.588 232.365 628.633 234.166 630.655 234.573C640.147 236.489 642.846 237.731 644.806 241.08C646.242 243.535 648.125 244.794 651.237 245.384C653.657 245.842 657.171 247.017 659.047 247.996C662.231 249.659 662.643 249.598 665.299 247.08C667.084 245.387 667.894 243.594 667.475 242.263C667.108 241.096 667.388 239.047 668.096 237.712C669.924 234.264 675.112 234.603 683.212 238.697C692.038 243.157 708.775 246.34 714.708 244.686C717.562 243.891 720.306 243.88 722.804 244.655C730.965 247.187 735.144 245.205 736.259 238.275C736.629 235.972 737.26 234.09 737.663 234.09C738.426 234.09 738.826 230.628 738.936 223.061C738.972 220.602 739.548 218.59 740.216 218.59C741.011 218.59 740.972 217.726 740.102 216.086C738.65 213.346 735.704 213.409 728.655 216.329C725.311 217.714 724.381 217.655 721.386 215.869C717.502 213.553 713.517 213.206 712.368 215.083C711.513 216.479 705.474 215.5 702.199 213.436C699.846 211.952 697.647 207.536 697.647 204.294C697.647 203.051 696.451 201.184 694.99 200.144C692.727 198.536 692.596 198.081 694.104 197.084C695.078 196.44 697.082 196.2 698.558 196.55C700.439 196.997 702.169 196.249 704.354 194.044C706.41 191.969 708.91 190.823 711.711 190.673C714.044 190.548 717.424 189.468 719.222 188.271C723.125 185.675 731.986 186.397 738.861 189.87C748.131 194.554 756.364 194.279 759.678 189.174C761.402 186.518 761.412 185.96 759.775 183.439C758.779 181.904 753.99 178.365 749.135 175.576L740.306 170.506L741.96 167.277C742.87 165.501 743.317 163.747 742.953 163.38C742.589 163.013 742.728 162.006 743.262 161.143C743.796 160.28 744.337 158.88 744.464 158.033C744.735 156.227 742.83 156.726 733.438 160.92C727.985 163.353 727.175 164.099 728.385 165.57C729.177 166.534 730.956 167.346 732.338 167.375C734.276 167.416 733.817 167.978 730.33 169.836C726.095 172.091 725.622 172.121 722.869 170.3C720.514 168.742 720.207 168.018 721.322 166.66C722.43 165.314 722.264 164.795 720.516 164.132C719.306 163.672 717.746 162.531 717.049 161.593C713.666 157.041 702.933 169.016 699.812 180.825C698.346 186.367 698.395 186.655 701.153 188.756L704.016 190.935L698.764 192.029C695.876 192.629 691.984 192.7 690.114 192.184C686.665 191.233 682.293 192.667 682.293 194.749C682.293 195.361 681.489 195.551 680.506 195.17C679.524 194.79 677.964 195.112 677.04 195.886C675.606 197.086 675.769 198.07 678.144 202.58C680.717 207.465 680.796 208.132 679.191 211.38C677.18 215.449 675.31 215.147 672.47 210.292C670.489 206.908 670.503 206.83 673.123 206.454C676.429 205.981 676.642 203.856 673.435 203.338C666.117 202.157 662.215 198.264 662.215 192.147C662.215 187.373 657.831 182.111 652.515 180.502C649.752 179.667 646.749 177.912 645.841 176.604C644.933 175.295 642.275 173.417 639.935 172.43C637.594 171.442 634.975 169.619 634.114 168.379C632.878 166.597 632.065 166.383 630.256 167.36C628.995 168.041 627.964 169.366 627.964 170.304C627.964 173.4 643.018 187.404 650.376 191.154C658.178 195.13 659.397 196.549 653.976 195.347C649.143 194.276 647.827 195.348 649.48 199.011C650.641 201.583 650.451 202.366 648.115 204.631L645.402 207.264L646.019 203.711C646.999 198.075 639.636 189.975 633.529 189.975C631.291 189.975 622.691 181.554 620.438 177.156C618.031 172.457 615.352 171.549 611.558 174.147C605.841 178.06 601.555 179.382 597.071 178.618C591.115 177.602 587.367 179.699 588.317 183.516C588.812 185.51 588.536 186.399 587.423 186.399C586.537 186.399 584.268 187.739 582.381 189.378C580.493 191.016 578.543 192.358 578.046 192.359C576.585 192.361 572.463 199.894 572.458 202.57C572.453 205.129 567.834 210.172 563.378 212.483C561.959 213.219 558.656 213.821 556.038 213.821C552.435 213.821 550.959 214.42 549.971 216.285C548.677 218.725 548.638 218.719 545.611 215.664C542.771 212.797 541.136 212.08 535.406 211.185C532.395 210.714 531.886 203.835 534.138 194.032C535.101 189.841 535.573 185.145 535.188 183.597C534.069 179.095 537.573 176.44 543.433 177.35C556.966 179.448 564.882 179.564 566.738 177.691C569.287 175.117 570.437 166.629 568.881 161.869C567.867 158.765 566.471 157.496 562.306 155.891C556.181 153.53 556.052 151.246 562.04 151.185C564.322 151.162 567.613 150.201 569.354 149.049C571.095 147.897 573.021 147.267 573.633 147.649C575.303 148.691 581.625 145.012 583.725 141.778C584.739 140.214 586.737 138.634 588.165 138.267C589.592 137.9 593.417 135.1 596.665 132.046C601.27 127.717 603.686 126.359 607.634 125.883C612.526 125.294 617.445 121.233 615.136 119.69C613.7 118.732 612.501 112.959 613.301 110.856C613.679 109.86 615.351 108.144 617.016 107.043L620.043 105.04L619.266 109.946C618.592 114.204 618.764 114.805 620.569 114.501C621.713 114.308 623.853 113.482 625.324 112.666C627.564 111.424 628.113 111.484 628.704 113.038C629.716 115.701 626.902 118.831 624.959 117.204C623.886 116.306 623.206 116.338 622.606 117.317C621.988 118.327 621.504 118.272 620.794 117.111C620.261 116.24 619.553 115.802 619.222 116.136C618.891 116.47 619.835 118.283 621.32 120.164C623.824 123.334 624.301 123.484 627.87 122.228C630.926 121.152 632.394 121.226 634.996 122.585C637.933 124.118 638.925 124.044 644.571 121.879C649.518 119.981 651.467 119.738 653.657 120.745C655.671 121.672 657.163 121.653 659.034 120.677C664.347 117.906 665.818 115.816 665.159 111.98C664.181 106.296 665.972 104.433 670.687 106.23C673.896 107.452 674.834 107.404 676.284 105.94C677.82 104.39 677.687 103.817 675.171 101.114C672.75 98.5114 672.58 97.8653 674.056 96.8599C675.014 96.2078 678.602 95.9746 682.029 96.341C688.302 97.0113 696.119 94.5381 694.757 92.3132C693.565 90.3645 686.364 89.8015 680.264 91.1795C674.855 92.402 673.435 92.3031 669.288 90.4155C662.849 87.4839 662.09 84.0542 666.507 77.8397C672.192 69.8407 673.232 67.2917 671.613 65.3218C669.214 62.4049 666.859 63.3558 661.38 69.4521C658.485 72.6734 654.541 75.9682 652.614 76.7736C650.688 77.5792 648.305 79.8132 647.319 81.738C645.713 84.8727 645.715 85.5297 647.343 88.0371C648.342 89.5768 650.237 91.1815 651.554 91.6034C655.177 92.7644 654.46 94.9429 649.278 98.5225C647.684 99.6228 645.558 102.738 644.553 105.444C643.295 108.834 641.381 111.148 638.396 112.887C634.188 115.339 633.997 115.35 631.672 113.225C630.356 112.022 628.959 109.57 628.568 107.774C628.178 105.98 626.404 102.752 624.627 100.603L621.395 96.6953L617.298 99.217C615.044 100.604 612.137 101.729 610.838 101.716C607.09 101.682 602.751 97.5948 602.461 93.8264C602.317 91.9538 601.834 89.5027 601.39 88.3799C600.331 85.7095 605.62 80.7012 611.116 79.1692C616.632 77.6318 627.82 69.7165 629.727 66.0027C630.575 64.3506 633.448 61.0263 636.112 58.6152C638.776 56.2041 640.955 53.7 640.955 53.0505C640.955 52.4011 643.48 50.9615 646.566 49.8516C649.651 48.7416 654.833 46.7277 658.081 45.3762C662.069 43.7169 667.055 42.8397 673.435 42.675C684.583 42.3871 691.873 43.8788 697.889 47.6782C700.907 49.5848 703.289 50.2352 705.569 49.7749C709.646 48.9517 731.384 55.7531 732.289 58.1358C733.2 60.5305 726.965 62.791 721.601 62.0112C719.145 61.6539 714.064 60.6987 710.311 59.8885C705.258 58.7978 703.142 58.7634 702.159 59.7559C701.176 60.7484 701.667 61.481 704.052 62.5779C705.823 63.3927 708.041 65.5592 708.98 67.3923C711.371 72.06 719.029 75.8649 722.98 74.3484C726.776 72.8915 726.75 72.4319 722.745 70.2384C719.04 68.2096 720.75 67.771 725.402 69.5566C729.117 70.9824 733.326 69.2087 732.346 66.6304C731.887 65.4228 733.178 64.5509 736.819 63.6091C744.611 61.5934 745.181 61.3053 744.535 59.7102C742.09 53.6767 742.056 53.85 745.613 54.26C747.511 54.4788 748.898 55.2982 748.74 56.1078C748.584 56.9079 749.573 58.1659 750.938 58.9032C752.988 60.0109 754.605 59.6163 760.243 56.6334C768.509 52.2593 774.944 50.8332 777.344 52.8438C778.682 53.9648 780.901 53.9727 787.323 52.8792C791.865 52.1057 796.098 51.7949 796.728 52.1883C797.359 52.5817 798.223 52.3348 798.649 51.6397C799.579 50.1195 797.005 46.67 795.596 47.549C793.895 48.6103 788.309 46.7092 789.524 45.4825C790.748 44.2474 823.617 51.979 825.584 53.9648C826.91 55.3034 831.108 53.5176 831.108 51.615C831.108 50.9738 828.764 49.2996 825.899 47.8944C817.016 43.5378 816.445 36.5602 824.799 34.4436C829.648 33.2152 831.745 34.6322 838.451 43.6699C847.157 55.4035 846.935 54.8065 844.091 58.8391C841.984 61.8252 841.857 62.5241 843.319 63.0902C846.088 64.1628 852.014 60.4094 852.848 57.0548C853.825 53.1241 852.001 49.7742 847.643 47.4995C844.217 45.7112 841.738 42.4343 841.738 39.6955C841.738 38.7618 843.023 38.529 845.576 38.9998C849.405 39.7058 852.572 38.3041 861.242 32.0662C863.225 30.6396 866.577 29.6996 869.957 29.6223C876.813 29.4653 879.032 28.3034 877.059 25.9036C876.285 24.9626 875.898 23.9443 876.199 23.641C877.707 22.1183 897.151 19.3745 901.629 20.0524C905.938 20.7047 907.272 20.3518 910.817 17.6223C913.098 15.866 914.964 13.9562 914.964 13.3783C914.964 11.9209 904.643 12.0511 903.744 13.5198C902.507 15.5407 900.903 14.8375 901.354 12.472C901.735 10.4747 900.736 10.1497 892.133 9.47352C868.642 7.62718 866.732 7.19391 869.551 4.34909C872.028 1.84789 878.105 1.89635 883.192 4.45791C885.276 5.50747 888.728 6.36623 890.864 6.36623C892.999 6.36623 895.075 6.90267 895.476 7.55843C895.878 8.21419 897.947 8.75073 900.073 8.75073C905.964 8.75073 917.353 11.3193 916.638 12.4865C916.29 13.0549 917.392 13.5198 919.087 13.5198C920.781 13.5198 923.87 14.4438 925.95 15.573C928.74 17.0917 932.65 17.638 940.95 17.6716C949.87 17.7077 952.83 18.1702 955.42 19.9284C957.2 21.1447 958.66 22.4806 958.65 22.897C958.64 23.3134 955.91 25.1678 952.59 27.018C944.57 31.4864 946.26 33.4337 955.97 30.8952C962.25 29.251 963.7 29.2405 968.9 30.8006C973.17 32.0807 975.84 32.245 978.73 31.4066C981.62 30.5697 984.59 30.7494 989.63 32.0663C994.88 33.4404 997.6 33.5802 1000.93 32.6468C1008.53 30.5166 1017.88 31.1182 1023.3 34.0865C1025.99 35.562 1030.97 38.2919 1034.35 40.1532C1040.34 43.4524 1040.6 43.4888 1044.75 41.6081C1048.23 40.0339 1050.17 39.9022 1055.3 40.8923C1060.4 41.8765 1062.26 41.7565 1065.13 40.2574C1067.94 38.7907 1068.39 38.0697 1067.32 36.7654C1065.25 34.243 1072.6 33.3053 1081.64 34.9398C1085.78 35.6884 1091.03 36.4358 1093.31 36.6005C1095.58 36.7653 1100.02 38.0731 1103.18 39.507C1107.99 41.6936 1111.62 42.189 1125.7 42.5794C1139.06 42.9498 1143.32 43.4895 1146.54 45.2236C1149.81 46.9836 1153.54 47.4313 1165.94 47.5534C1177.35 47.6657 1182.47 48.212 1185.85 49.6806C1191.31 52.0512 1193.5 51.1818 1190.53 47.8208C1188.39 45.4032 1188.4 45.3999 1196.65 46.2272C1210.47 47.6136 1227.06 50.6675 1232.67 52.8608C1235.6 54.0029 1241.17 55.3299 1245.05 55.8098C1248.94 56.2897 1254.61 57.9567 1257.65 59.5141C1262.28 61.878 1263.78 62.1392 1266.74 61.095C1270.8 59.667 1273.43 60.6952 1279.63 66.1288L1283.48 69.5051L1280.58 70.2403C1277.67 70.9781 1269.94 69.0455 1267.27 66.914C1266.49 66.2872 1265.39 66.0599 1264.83 66.4089C1264.27 66.7578 1261.51 66.2417 1258.69 65.262C1252.09 62.9674 1249.16 63.8292 1252.17 67.1809C1254.22 69.47 1254.18 69.5181 1250.26 69.2426C1242.94 68.7268 1244.95 70.9102 1255.7 75.1437C1261.55 77.4455 1266.58 79.5737 1266.89 79.8728C1268 80.956 1264.34 82.2987 1261.68 81.7856C1258.76 81.2221 1251.57 84.3854 1251.57 86.2325C1251.57 86.8458 1250.43 88.4169 1249.04 89.7237C1246.72 91.9066 1246.24 91.9558 1243.14 90.3356C1240.23 88.819 1239.3 88.8032 1236.51 90.2234C1234.72 91.1318 1231.67 92.2617 1229.73 92.7341C1227.78 93.2066 1225.53 94.1484 1224.72 94.8258C1222.34 96.8165 1226.53 102.613 1232.44 105.498C1235.65 107.069 1237.98 109.174 1238.67 111.136C1239.28 112.858 1240.57 115.686 1241.53 117.42C1243.11 120.248 1243.09 120.649 1241.4 121.305C1240.16 121.786 1239.8 122.749 1240.34 124.113C1240.79 125.255 1241.3 127.531 1241.47 129.17C1241.64 130.81 1242.16 133.041 1242.63 134.13C1243.23 135.546 1242.73 136.345 1240.87 136.941C1238.8 137.606 1237.4 136.805 1234 133.002C1231.64 130.378 1227.72 126.765 1225.28 124.972C1222.84 123.18 1218.46 118.521 1215.55 114.618C1210.43 107.733 1210.32 107.419 1212.02 104.098C1212.99 102.214 1213.79 99.4401 1213.82 97.9319C1213.84 96.4238 1214.59 93.8577 1215.48 92.2294C1217.19 89.1187 1216.53 86.635 1212.88 82.4118C1210.49 79.6388 1206.23 81.7176 1207.3 85.1346C1208.29 88.2825 1205.26 89.3026 1201.76 86.9953C1200.25 85.995 1196.76 84.8146 1194.02 84.3721C1189.3 83.6125 1188.95 83.7585 1187.73 86.9944C1187.02 88.8792 1186.72 91.8587 1187.07 93.6154C1187.61 96.3531 1187.23 96.9134 1184.44 97.5312C1182.55 97.9521 1179.29 97.4545 1176.65 96.337C1173.74 95.1094 1170.99 94.739 1169.02 95.3053C1167.33 95.7908 1161.6 96.232 1156.29 96.2855C1147.89 96.3703 1146.27 96.7408 1143.71 99.1635C1142.1 100.693 1140.16 104.448 1139.41 107.509C1138.65 110.57 1137.27 114.268 1136.33 115.728C1134.71 118.251 1134.87 118.506 1139.5 120.89C1144.52 123.477 1150 124.158 1154.15 122.714C1157.35 121.598 1167.12 129.288 1170.17 135.325C1171.42 137.797 1173.49 140.385 1174.76 141.073C1179.59 143.68 1180.57 160.78 1176.53 171.959C1173.74 179.7 1170.61 182.231 1166.02 180.469C1164.27 179.796 1162.66 179.246 1162.44 179.246C1162.22 179.246 1160.91 181.446 1159.52 184.137C1157.7 187.669 1157.34 189.449 1158.24 190.543C1159.96 192.636 1158.69 195.36 1155.25 196.942C1153.66 197.673 1152.36 198.79 1152.36 199.425C1152.36 200.06 1156.05 203.146 1160.57 206.284C1166.32 210.276 1169.39 213.342 1170.79 216.494C1171.9 218.972 1172.59 221.196 1172.33 221.437C1172.06 221.677 1169.65 222.993 1166.96 224.359L1162.08 226.846L1159.14 220.036C1155.85 212.413 1153.03 209.348 1148.06 207.998C1145.55 207.317 1144.68 206.353 1144.68 204.266C1144.68 202.352 1143.46 200.725 1140.85 199.186C1137.06 196.944 1136.99 196.946 1132.95 199.464C1128.91 201.983 1128.87 201.985 1127.63 199.646C1126.94 198.348 1126.38 196.465 1126.38 195.461C1126.38 194.458 1125.38 193.1 1124.17 192.445C1122.37 191.469 1121.23 192.059 1117.91 195.681C1115.68 198.117 1112.82 200.703 1111.56 201.427C1109.6 202.551 1109.5 203.026 1110.85 204.667C1111.72 205.726 1114.72 207.885 1117.52 209.465C1121.98 211.978 1122.83 212.121 1124.33 210.604C1125.76 209.164 1126.92 209.11 1131.23 210.291L1136.42 211.712L1133.53 213.661C1128.17 217.276 1126.48 219.173 1125.72 222.435C1125.09 225.112 1125.46 225.918 1127.84 227.013C1129.43 227.744 1131.85 230.66 1133.21 233.493C1134.57 236.326 1137.3 239.603 1139.26 240.775C1143.59 243.353 1144.84 246.092 1142.34 247.502C1140.02 248.816 1141.13 250.782 1144.2 250.782C1147.88 250.782 1147.9 252.996 1144.34 265.78C1140.04 281.264 1136.15 286.429 1125.98 290.185C1121.98 291.664 1117.1 292.963 1115.16 293.072C1110.63 293.325 1107.11 295.261 1104.05 299.194L1101.62 302.317L1100.48 299.304C1099 295.374 1095.61 294.386 1090.74 296.467C1086.27 298.374 1083.33 301.414 1082.14 305.346C1081.08 308.864 1084.84 315.053 1091.07 320.032C1096.18 324.12 1101.92 334.379 1103.26 341.843C1104.44 348.335 1102.36 352.597 1096.79 355.132C1094.25 356.287 1091.88 358.18 1091.51 359.34C1090.64 362.126 1085.39 365.594 1084.43 364.023C1084.03 363.369 1084.02 361.841 1084.4 360.627C1084.78 359.415 1084.76 357.551 1084.36 356.487C1083.77 354.956 1083.13 354.819 1081.26 355.826C1079.32 356.875 1078.57 356.61 1077 354.314C1073.15 348.672 1061.98 339.606 1058.88 339.606C1057.79 339.606 1057.37 340.93 1057.56 343.779C1057.71 346.074 1057.24 350.549 1056.53 353.722C1055.36 358.894 1055.48 359.841 1057.68 362.843C1059.03 364.685 1060.47 367.541 1060.88 369.19C1061.29 370.863 1064.71 374.686 1068.61 377.849C1075.13 383.12 1075.81 384.16 1078.55 392.917C1080.17 398.09 1081.5 402.832 1081.5 403.454C1081.5 405.475 1079.03 404.657 1073.88 400.924C1068.56 397.065 1065.16 390.96 1062.32 380.169C1061.09 375.484 1059.74 373.475 1055.91 370.631C1051.21 367.142 1051.07 366.838 1051.45 361.066C1051.66 357.788 1052.2 353.14 1052.63 350.739C1053.25 347.359 1052.74 344.936 1050.39 340.009C1048.72 336.509 1046.74 331.132 1045.99 328.062C1044.33 321.203 1041.98 320.054 1037.83 324.069C1036.12 325.729 1034.38 327.087 1033.98 327.087C1032.1 327.087 1029.51 323.047 1030.13 321.077C1031.26 317.498 1024.34 305.023 1020.29 303.33C1018.08 302.403 1016.05 300.156 1014.69 297.122C1012.34 291.849 1009.7 289.832 1007.06 291.291C1006.1 291.82 1002.27 292.884 998.54 293.656C991.7 295.071 989.25 297.16 990.19 300.771C990.53 302.101 989.34 303.385 986.47 304.766C984.14 305.884 981.64 308.135 980.9 309.767C980.17 311.399 978.55 313.061 977.3 313.459C976.05 313.858 974.13 315.683 973.03 317.514C971.93 319.346 968.64 322.692 965.73 324.951C961.74 328.043 960.5 329.772 960.7 331.948C961.86 344.661 960.08 355.299 955.74 361.617C951.51 367.778 951.22 367.95 947.64 366.304C945.67 365.398 944.45 363.628 943.95 360.926C943.54 358.712 941.16 352.472 938.67 347.061C923.56 314.317 921.331 308.07 922.618 302.156C923.49 298.161 921.401 292.132 919.386 292.814C918.578 293.089 917.903 294.071 917.886 294.998C917.785 300.44 911.728 301.276 906.998 296.5L903.863 293.336L906.56 292.329C909.594 291.195 909.316 288.139 906.229 288.7C905.132 288.899 902.622 287.692 900.651 286.018C898.68 284.343 896.612 282.973 896.056 282.973C895.5 282.973 894.706 281.894 894.291 280.575C893.203 277.113 886.937 274.101 883.797 275.53C880.972 276.816 855.335 276.548 851.044 275.187C849.498 274.696 846.639 272.453 844.69 270.202C841.169 266.134 841.115 266.118 835.832 267.554C830.827 268.917 830.1 268.788 823.358 265.352C817.532 262.384 815.787 260.783 813.989 256.757C811.694 251.62 806.598 247.901 803.5 249.101C802.524 249.479 801.384 251.357 800.967 253.275C800.368 256.028 800.979 257.818 803.875 261.793C805.891 264.561 808.088 268.877 808.757 271.383C810.193 276.769 813.03 278.371 815.381 275.124C816.8 273.166 817.183 273.097 818.144 274.633C818.757 275.613 819.088 276.952 818.879 277.608C818.222 279.669 825.038 283.06 828.218 282.254C829.825 281.847 833.259 279.084 835.848 276.115C839.929 271.435 841.353 271.119 840.656 275.049C840.186 277.693 842.248 280.793 845.66 282.574C850.93 285.324 858.273 291.452 858.273 293.099C858.273 293.858 856.892 295.78 855.205 297.37C853.518 298.96 851.09 302.324 849.809 304.845C846.697 310.972 837.678 319.933 834.624 319.933C831.094 319.933 825.843 322.942 823.753 326.163C822.762 327.688 820.159 329.84 817.967 330.945C806.741 336.603 793.226 342.337 789.422 343.058C785.355 343.828 785.026 343.642 782.871 339.352C781.624 336.869 780.208 331.885 779.726 328.279C779.098 323.588 777.882 320.606 775.452 317.805C773.583 315.651 772.054 313.371 772.054 312.74C772.054 312.108 769.923 309.373 767.318 306.663C764.074 303.289 761.977 299.626 760.663 295.037C759.608 291.353 757.461 286.728 755.892 284.762C745.052 271.173 741.843 266.382 740.227 261.378C738.085 254.747 736.274 253.677 735.439 258.548L734.845 262.005L730.85 256.912C724.693 249.065 723.917 252.632 729.697 262.212C732.432 266.746 736.792 274.747 739.386 279.992C741.979 285.238 745.342 291.19 746.858 293.22C748.419 295.309 749.614 298.574 749.614 300.75C749.614 305.242 750.942 308.046 756.158 314.568C758.255 317.191 760.328 321.02 760.763 323.079C761.321 325.717 763.601 328.476 768.502 332.445C775.95 338.475 780.777 344.77 781.975 350.017C782.425 351.987 784.129 354.01 786.291 355.139C789.584 356.858 790.744 356.81 801.153 354.534C807.362 353.176 813.94 351.284 815.77 350.328L819.097 348.591L819.887 353.311C820.605 357.599 819.832 359.664 811.424 375.943C802.384 393.447 801.961 394.025 792.972 401.189C787.912 405.221 782.617 410.159 781.206 412.159C779.794 414.161 775.277 419.567 771.168 424.172C759.178 437.611 757.548 449.431 765.5 465.274C767.52 469.298 768.309 472.345 767.831 474.271C767.432 475.872 767.688 479.917 768.398 483.259C769.516 488.523 769.389 489.93 767.454 493.758C764.662 499.281 762.44 501.266 754.634 505.215C751.223 506.94 748.433 508.862 748.433 509.484C748.433 510.107 746.041 513.336 743.118 516.658C740.195 519.98 737.803 523.239 737.803 523.899C737.803 524.559 738.899 527.266 740.238 529.917C744.253 537.862 741.555 543.619 731.931 547.643C727.874 549.34 726.542 552.803 727.546 559.046C728.071 562.318 727.737 563.406 725.901 564.398C724.633 565.083 722.341 567.633 720.808 570.063C715.967 577.738 702.05 591.32 695.727 594.539C690.451 597.226 689.102 597.463 685.226 596.383C681.808 595.43 679.05 595.58 673.32 597.034C664.04 599.387 665.024 599.485 661.43 595.856ZM816.994 215.579C820.043 213.987 820.478 213.111 820.478 208.571C820.478 205.317 819.789 202.805 818.629 201.833C817.612 200.981 815.964 198.691 814.966 196.744C813.317 193.524 813.324 193.271 815.044 193.938C817.316 194.817 820.478 193.759 820.478 192.119C820.478 191.471 819.38 189.382 818.037 187.478C816.014 184.61 815.203 184.228 813.312 185.25C811.783 186.076 811.03 186.083 811.03 185.272C811.03 184.607 808.922 182.977 806.345 181.65C800.643 178.714 798.614 175.46 800.393 172.106C801.739 169.567 806.547 167.788 808.6 169.069C811.369 170.796 812.185 168.25 809.901 165.012C804.361 157.158 796.648 157.675 787.083 166.541C780.91 172.262 780.374 173.782 783.865 175.668C785.164 176.371 786.227 177.743 786.227 178.718C786.227 179.693 788.328 182.791 790.896 185.603C796.809 192.08 797.894 195.039 797.162 202.704L796.573 208.875L804.687 213.077C809.15 215.389 812.961 217.307 813.155 217.339C813.35 217.372 815.077 216.579 816.994 215.579ZM784.456 548.617C781.121 546.707 780.647 545.7 779.776 538.662C779.08 533.039 779.371 531.816 782.703 526.349C786.09 520.792 786.334 519.722 785.587 513.686C784.508 504.971 786.344 500.391 791.362 499.28C796.089 498.233 806.318 489.117 808.769 483.766L810.642 479.677L811.944 482.562C815.219 489.819 814.886 493.007 809.187 508.923C806.138 517.439 802.867 527.627 801.918 531.561C798.881 544.153 797.156 547.189 792.181 548.694C786.885 550.296 787.397 550.301 784.456 548.617ZM1366.25 527.888C1362.48 523.726 1360.23 520.155 1360.23 518.35C1360.23 514.349 1360.86 514.698 1364.27 520.57C1365.9 523.377 1368.85 527.233 1370.82 529.138C1372.79 531.044 1374.4 533.04 1374.4 533.573C1374.4 535.866 1371.89 534.112 1366.25 527.888ZM839.376 526.195C839.376 525.54 839.907 525.003 840.557 525.003C841.206 525.003 841.738 525.54 841.738 526.195C841.738 526.852 841.206 527.388 840.557 527.388C839.907 527.388 839.376 526.852 839.376 526.195ZM1461.34 524.021C1460.92 523.341 1461.16 522.425 1461.86 521.986C1463.61 520.891 1464.24 521.762 1463.06 523.675C1462.44 524.7 1461.83 524.822 1461.34 524.021ZM847.643 522.093C847.643 521.804 848.175 521.236 848.824 520.831C849.474 520.425 850.005 520.661 850.005 521.356C850.005 522.05 849.474 522.619 848.824 522.619C848.175 522.619 847.643 522.383 847.643 522.093ZM1430.62 509.992C1429.47 506.967 1430.93 505.906 1434.19 507.403C1437 508.695 1437.06 508.893 1435.1 510.338C1432.36 512.36 1431.5 512.294 1430.62 509.992ZM1438.11 504.69C1435.8 503.251 1437.4 502.1 1441.07 502.558C1443.95 502.918 1444.01 503.049 1441.96 504.327C1440.65 505.145 1439.07 505.293 1438.11 504.69ZM1382.96 500.315C1380.54 495.043 1381.39 493.018 1383.9 498.092C1386.51 503.373 1386.55 503.547 1385.33 503.534C1384.84 503.528 1383.78 502.08 1382.96 500.315ZM1387.49 499.469C1387.43 498.213 1387.71 497.508 1388.11 497.905C1388.5 498.3 1388.54 499.329 1388.2 500.189C1387.82 501.14 1387.54 500.858 1387.49 499.469ZM1483.64 488.022C1482.56 486.256 1483.58 485.355 1486.1 485.851C1487.95 486.215 1487.97 486.408 1486.3 487.803C1484.97 488.914 1484.22 488.976 1483.64 488.022ZM785.637 482.082C785.235 481.426 785.47 480.89 786.158 480.89C786.846 480.89 787.408 481.426 787.408 482.082C787.408 482.737 787.174 483.274 786.888 483.274C786.601 483.274 786.038 482.737 785.637 482.082ZM1304.13 470.88C1296.65 468.501 1293.26 466.291 1290.32 461.877C1286.96 456.836 1280.81 453.019 1277.67 454.026C1276.4 454.432 1274.26 456.644 1272.92 458.941C1270.64 462.85 1270.2 463.065 1266.05 462.32C1263.61 461.882 1260.2 460.195 1258.47 458.572C1256.28 456.509 1254.6 455.857 1252.89 456.405C1251.54 456.836 1249.59 456.71 1248.55 456.123C1246.92 455.206 1247.08 454.776 1249.68 453.058C1252.69 451.069 1252.69 451.042 1250.68 446.77C1249.05 443.339 1246.82 441.55 1239.51 437.84C1234.48 435.287 1228.79 433.199 1226.87 433.199C1222.48 433.199 1220.67 429.112 1223.98 426.67C1225.94 425.217 1225.66 424.856 1220.52 422.338C1215.07 419.664 1214.99 419.551 1217.6 418.091C1219.07 417.266 1221.44 416.573 1222.86 416.55C1225.63 416.504 1229.13 420.534 1229.13 423.765C1229.13 424.842 1230.28 427.198 1231.68 428.998C1234.2 432.227 1234.26 432.24 1236.11 429.909C1237.14 428.609 1240.44 426.128 1243.43 424.394L1248.88 421.245L1256.42 424.682C1260.57 426.573 1266.47 429.027 1269.52 430.137C1272.57 431.247 1278.67 434.547 1283.08 437.469C1291.5 443.049 1295.15 447.755 1293.06 450.306C1291.35 452.385 1298.06 461.857 1305.01 467.172C1312.65 473.013 1312.52 473.553 1304.13 470.88ZM1355.53 470.784C1354.6 469.651 1354.51 468.967 1355.29 468.967C1356.72 468.967 1358.38 471.229 1357.56 472.056C1357.26 472.356 1356.35 471.783 1355.53 470.784ZM1157.08 465.93C1155.37 464.975 1154.88 464.272 1155.9 464.259C1158.01 464.229 1161.39 466.214 1160.59 467.017C1160.28 467.325 1158.71 466.838 1157.08 465.93ZM1177.05 464.356C1180.4 459.607 1185.64 457.575 1190.49 459.146C1194.02 460.29 1194.07 460.386 1191.27 460.499C1189.61 460.566 1185.74 462.231 1182.67 464.198C1175.65 468.687 1173.96 468.735 1177.05 464.356ZM1348.42 465.986C1346.82 464.045 1347.2 463.802 1350.09 464.922C1351.12 465.32 1351.96 466.124 1351.96 466.71C1351.96 468.359 1350.05 467.968 1348.42 465.986ZM1353.95 464.934C1353.51 463.766 1353.18 461.916 1353.22 460.821C1353.27 459.504 1353.68 459.805 1354.43 461.711C1355.06 463.295 1355.39 465.145 1355.16 465.823C1354.94 466.503 1354.39 466.102 1353.95 464.934ZM1445.27 466.057C1445.27 465.768 1445.8 465.199 1446.45 464.794C1447.1 464.389 1447.63 464.625 1447.63 465.32C1447.63 466.014 1447.1 466.582 1446.45 466.582C1445.8 466.582 1445.27 466.345 1445.27 466.057ZM1143.2 461.048C1142.38 460.701 1142.02 459.927 1142.38 459.327C1143.28 457.853 1150.85 457.935 1151.77 459.428C1152.17 460.084 1151.8 460.629 1150.95 460.638C1150.1 460.647 1148.34 460.885 1147.04 461.167C1145.75 461.449 1144.01 461.397 1143.2 461.048ZM1160.73 460.154C1158.59 457.544 1161.06 456.749 1166.62 458.261C1172.23 459.785 1172.21 460.023 1166.4 461.082C1163.38 461.632 1161.72 461.36 1160.73 460.154ZM1338.06 459.428C1337.24 458.108 1337.1 457.044 1337.74 457.044C1338.37 457.044 1339.45 458.117 1340.15 459.428C1340.85 460.741 1340.99 461.814 1340.48 461.814C1339.96 461.814 1338.87 460.741 1338.06 459.428ZM1345.46 458.229C1342.3 454.707 1343.99 454.153 1347.24 457.645C1348.76 459.282 1349.47 460.62 1348.81 460.62C1348.14 460.62 1346.64 459.544 1345.46 458.229ZM1124.01 458.022C1119.79 457.431 1113.84 456.12 1110.78 455.109C1107.73 454.097 1104.13 453.622 1102.79 454.053C1100.08 454.919 1088.58 451.506 1088.58 449.836C1088.58 446.025 1099.17 445.736 1104.8 449.393C1106.9 450.759 1108.55 450.85 1112.99 449.845C1117.91 448.732 1118.94 448.869 1121.83 451.026C1123.63 452.369 1125.63 453.467 1126.29 453.467C1128.62 453.467 1135.71 457.456 1135.11 458.433C1134.78 458.98 1133.87 459.354 1133.1 459.263C1132.32 459.171 1128.24 458.614 1124.01 458.022ZM1336.02 452.275C1334.84 450.964 1334.41 449.891 1335.06 449.891C1335.71 449.891 1337.2 450.964 1338.38 452.275C1339.55 453.586 1339.98 454.659 1339.33 454.659C1338.69 454.659 1337.19 453.586 1336.02 452.275ZM1328.57 450.765C1327.9 449.949 1327.01 447.675 1326.59 445.71C1325.91 442.548 1325.99 442.412 1327.25 444.525C1328.03 445.837 1329.43 447.796 1330.35 448.878C1331.33 450.025 1331.57 451.138 1330.91 451.547C1330.29 451.933 1329.24 451.581 1328.57 450.765ZM1303.56 446.974L1300.62 445.334L1305.17 444.473C1307.67 443.999 1311.52 442.018 1313.71 440.07C1316.11 437.943 1317.7 437.173 1317.69 438.142C1317.66 440.567 1316.21 442.435 1311.8 445.723C1307.19 449.158 1307.4 449.124 1303.56 446.974ZM1082 442.332C1077.66 439.836 1069.84 430.182 1067.29 424.18C1065.92 420.944 1062.77 415.613 1060.29 412.334C1057.82 409.055 1054.97 404.763 1053.98 402.796C1052.98 400.829 1049.95 397.073 1047.24 394.45C1041.54 388.92 1038.03 383.108 1040.42 383.15C1043.52 383.203 1051.5 387.681 1054.92 391.287C1064.36 401.235 1066.29 403.005 1070.75 405.776C1075.05 408.451 1077.09 411.235 1077.29 414.718C1077.33 415.374 1078.55 417.252 1080.01 418.892C1081.47 420.531 1084.21 423.614 1086.12 425.743C1088.02 427.872 1089.92 431.194 1090.34 433.125C1091.71 439.446 1086.67 445.016 1082 442.332ZM844.1 441.544C844.1 440.889 844.631 440.352 845.281 440.352C845.931 440.352 846.462 440.889 846.462 441.544C846.462 442.2 845.931 442.736 845.281 442.736C844.631 442.736 844.1 442.2 844.1 441.544ZM1156.49 441.534C1156.08 440.872 1156.08 439.287 1156.47 438.011C1156.88 436.734 1156.39 434.436 1155.39 432.895C1153.74 430.361 1153.76 429.83 1155.56 427.242C1156.65 425.671 1157.93 421.453 1158.41 417.867C1159.01 413.443 1160.18 410.448 1162.07 408.545C1164.64 405.943 1165.29 405.828 1171.09 406.937C1176.06 407.889 1178.02 407.772 1180.73 406.358C1185.26 403.991 1185.59 404.097 1184.09 407.433C1182.17 411.675 1178.35 413.03 1174.31 410.897C1167.11 407.088 1157.56 412.749 1162.6 417.839C1164.45 419.709 1165.48 419.88 1168.91 418.885C1174.79 417.182 1177.11 417.495 1173.46 419.499C1169.32 421.768 1168.54 424.285 1170.67 428.446C1171.64 430.339 1172.43 433.275 1172.43 434.97C1172.43 437.683 1172.15 437.899 1170.07 436.774C1168.77 436.072 1166.89 433.535 1165.9 431.138C1164.11 426.811 1164.08 426.796 1161.79 429.109C1159.78 431.139 1159.64 432.04 1160.74 436.062C1161.74 439.696 1161.67 440.897 1160.43 441.692C1158.34 443.026 1157.37 442.988 1156.48 441.534H1156.49ZM1318.53 435.174C1317.42 433.459 1314.87 431.2 1312.86 430.155C1310.86 429.109 1309.49 427.986 1309.81 427.658C1311.65 425.803 1321.9 434.225 1321.02 436.869C1320.76 437.682 1319.69 436.954 1318.53 435.174ZM1133.06 431.206C1131.28 430.264 1128.88 429.795 1127.72 430.164C1124.79 431.105 1113.11 428.708 1111.96 426.925C1111.04 425.507 1108.33 416.772 1106.89 410.545C1106.49 408.834 1106.89 406.612 1107.81 405.327C1109.17 403.463 1109.87 403.321 1112.01 404.478C1114.27 405.699 1114.75 405.49 1115.98 402.745C1116.76 401.029 1119.34 398.622 1121.72 397.398C1124.23 396.101 1126.65 393.674 1127.51 391.584C1128.5 389.174 1130.3 387.555 1133.01 386.655C1135.22 385.918 1138.42 383.48 1140.11 381.238C1141.81 378.996 1143.82 377.162 1144.59 377.162C1145.36 377.162 1147.69 378.933 1149.77 381.098L1153.55 385.034L1150.52 389.146C1147.08 393.817 1147.26 397.835 1151.16 403.363L1153.52 406.709L1150.58 408.655C1148.96 409.725 1147.64 411.259 1147.64 412.063C1147.65 414.794 1140.08 430.535 1138.19 431.73C1136.86 432.563 1135.33 432.406 1133.06 431.206ZM1201.67 431.185C1199.23 430.54 1198.89 428.43 1201.23 428.43C1202.12 428.43 1204.62 428.786 1206.78 429.224C1210.11 429.895 1210.36 430.156 1208.41 430.928C1205.84 431.941 1204.7 431.984 1201.67 431.185ZM1389.75 415.981C1389.75 415.692 1390.29 415.124 1390.94 414.718C1391.59 414.314 1392.12 414.55 1392.12 415.244C1392.12 415.939 1391.59 416.507 1390.94 416.507C1390.29 416.507 1389.75 416.27 1389.75 415.981ZM1197.53 412.748C1196.59 411.795 1196.53 410.689 1197.35 409.146C1198 407.921 1198.22 406.405 1197.83 405.776C1196.77 404.037 1199.43 399.815 1201.6 399.815C1203.33 399.815 1203.33 400.02 1201.52 402.033C1199.96 403.774 1199.79 404.925 1200.72 407.387C1202.59 412.365 1200.55 415.796 1197.53 412.748ZM604.342 408.828C604.342 408.538 604.874 407.97 605.523 407.565C606.173 407.159 606.704 407.397 606.704 408.091C606.704 408.786 606.173 409.353 605.523 409.353C604.874 409.353 604.342 409.117 604.342 408.828ZM1423.42 405.776C1423.01 405.121 1423.25 404.584 1423.94 404.584C1424.62 404.584 1425.19 405.121 1425.19 405.776C1425.19 406.433 1424.95 406.969 1424.67 406.969C1424.38 406.969 1423.82 406.433 1423.42 405.776ZM611.429 394.521C611.429 394.231 611.96 393.663 612.61 393.258C613.259 392.852 613.791 393.089 613.791 393.784C613.791 394.478 613.259 395.046 612.61 395.046C611.96 395.046 611.429 394.809 611.429 394.521ZM1179.54 376.594C1177.28 371.289 1176.98 371.051 1173.52 371.819C1170.06 372.586 1169.94 372.492 1171.23 370.05C1172.31 368.027 1173.3 367.626 1175.84 368.189C1178.29 368.732 1179.86 368.183 1182.26 365.938C1184 364.305 1185.44 362.004 1185.46 360.825C1185.49 357.816 1189.88 367.908 1190.88 373.303C1191.64 377.401 1191.54 377.623 1189.7 376.079C1186.96 373.789 1184.32 376.165 1186.57 378.9C1187.47 379.991 1187.58 380.739 1186.85 380.739C1186.18 380.739 1184.79 381.062 1183.76 381.459C1182.39 381.99 1181.29 380.715 1179.54 376.594ZM964.19 378.701C962.87 376.536 962.12 366.82 963.08 364.242C964.09 361.508 964.16 361.541 967.17 366.03C970.78 371.411 971.93 374.861 970.74 376.703C969.6 378.467 964.92 379.895 964.19 378.701ZM1227.95 372.534C1227.95 371.878 1228.48 371.01 1229.13 370.605C1229.78 370.199 1230.31 370.404 1230.31 371.06C1230.31 371.715 1229.78 372.584 1229.13 372.989C1228.48 373.394 1227.95 373.189 1227.95 372.534ZM1413.38 372.393C1413.38 371.738 1413.61 371.201 1413.9 371.201C1414.18 371.201 1414.75 371.738 1415.15 372.393C1415.55 373.049 1415.31 373.585 1414.63 373.585C1413.94 373.585 1413.38 373.049 1413.38 372.393ZM1145.27 365.505C1145.27 364.995 1147.64 361.91 1150.53 358.65C1154.78 353.871 1155.81 353.195 1155.85 355.17C1155.88 356.518 1154.1 359.603 1151.9 362.025C1148.18 366.135 1145.27 367.658 1145.27 365.505ZM1170.85 362.323C1170.42 361.192 1170.51 359.472 1171.05 358.504C1171.88 357.003 1172.23 356.988 1173.39 358.406C1174.44 359.676 1174.39 360.58 1173.2 362.225C1171.73 364.246 1171.59 364.252 1170.85 362.323ZM266.401 357.678C267.124 356.798 267.367 355.725 266.939 355.293C266.512 354.862 267.264 354.509 268.611 354.509C270.477 354.509 270.912 355.075 270.441 356.893C270.083 358.278 268.83 359.278 267.454 359.278C265.607 359.278 265.375 358.926 266.401 357.678ZM1178.78 357.363C1178.34 356.121 1177.76 354.703 1177.5 354.211C1177.24 353.719 1177.52 353.317 1178.14 353.317C1179.31 353.317 1180.97 358.213 1180.1 359.099C1179.81 359.385 1179.22 358.603 1178.78 357.363ZM1166.81 354.251C1165.15 352.233 1166.77 349.361 1169.25 349.921C1170.8 350.271 1170.86 350.767 1169.61 353.1C1168.41 355.35 1167.89 355.564 1166.81 354.251ZM1180.77 350.154C1179.42 348.415 1178.51 346.792 1178.75 346.549C1179.71 345.58 1183.03 347.715 1184.8 350.437C1187.51 354.621 1184.07 354.379 1180.77 350.154ZM1161.36 345.539C1160.31 344.477 1159.45 342.991 1159.45 342.237C1159.45 341.481 1160.61 342.042 1162.04 343.48C1163.46 344.92 1164.32 346.406 1163.95 346.783C1163.58 347.16 1162.41 346.601 1161.36 345.539ZM234.273 345.368C233.84 344.931 233.486 344.019 233.486 343.341C233.486 342.594 234.036 342.665 234.883 343.521C235.652 344.296 236.006 345.208 235.671 345.547C235.335 345.886 234.706 345.805 234.273 345.368ZM227.58 343.778C227.58 343.123 227.815 342.586 228.101 342.586C228.388 342.586 228.951 343.123 229.352 343.778C229.754 344.434 229.519 344.971 228.831 344.971C228.143 344.971 227.58 344.434 227.58 343.778ZM283.091 341.394C283.091 340.738 283.325 340.201 283.612 340.201C283.898 340.201 284.461 340.738 284.862 341.394C285.264 342.05 285.03 342.586 284.342 342.586C283.654 342.586 283.091 342.05 283.091 341.394ZM1173.24 341.212C1172.05 340.539 1169.81 340.309 1168.25 340.705C1165.96 341.285 1164.39 340.356 1160.11 335.909C1154.06 329.628 1152.88 326.979 1154.66 323.633C1155.34 322.34 1155.9 319.669 1155.9 317.697C1155.9 311.225 1160.2 311.487 1163.34 318.15C1165.09 321.842 1165.1 322.634 1163.46 326.595C1161.7 330.858 1161.73 331.047 1164.88 334.364C1167.15 336.759 1168.86 337.573 1170.65 337.117C1172.17 336.733 1173.81 337.209 1174.7 338.297C1176.83 340.884 1175.9 342.729 1173.24 341.212ZM276.004 333.715C276.004 333.426 276.536 332.857 277.185 332.452C277.835 332.047 278.367 332.283 278.367 332.978C278.367 333.672 277.835 334.24 277.185 334.24C276.536 334.24 276.004 334.004 276.004 333.715ZM461.433 329.472C461.433 328.815 461.964 328.279 462.614 328.279C463.263 328.279 463.795 328.815 463.795 329.472C463.795 330.127 463.263 330.664 462.614 330.664C461.964 330.664 461.433 330.127 461.433 329.472ZM272.461 324.843C272.461 324.187 272.993 323.319 273.642 322.914C274.292 322.508 274.823 322.713 274.823 323.369C274.823 324.024 274.292 324.893 273.642 325.298C272.993 325.703 272.461 325.498 272.461 324.843ZM262.43 319.947C262.017 319.271 262.491 319.071 263.542 319.478C265.588 320.271 265.962 321.125 264.263 321.125C263.652 321.125 262.827 320.595 262.43 319.947ZM450.212 319.933C449.811 319.277 450.045 318.741 450.733 318.741C451.421 318.741 451.984 319.277 451.984 319.933C451.984 320.589 451.75 321.125 451.463 321.125C451.177 321.125 450.614 320.589 450.212 319.933ZM267.146 317.549C266.745 316.893 266.979 316.356 267.667 316.356C268.355 316.356 268.918 316.893 268.918 317.549C268.918 318.204 268.684 318.741 268.397 318.741C268.111 318.741 267.548 318.204 267.146 317.549ZM272.461 317.549C272.461 316.893 272.696 316.356 272.982 316.356C273.268 316.356 273.831 316.893 274.233 317.549C274.634 318.204 274.4 318.741 273.712 318.741C273.024 318.741 272.461 318.204 272.461 317.549ZM191.262 314.374C190.45 314.044 189.786 313.282 189.786 312.68C189.786 310.961 195 311.404 197.533 313.338C199.711 315.001 199.648 315.086 196.282 315.032C194.333 315.001 192.074 314.705 191.262 314.374ZM221.149 313.699C220.089 313.1 217.749 312.936 215.948 313.336C214.147 313.735 211.377 313.538 209.793 312.899C207.245 311.869 207.47 311.748 211.743 311.849C218.022 311.998 219.698 310.965 218.094 307.938C216.954 305.789 217.297 305.626 222.931 305.626C228.382 305.626 236.245 308.149 237.577 310.326C238.463 311.773 223.264 314.893 221.149 313.699ZM243.804 314.452C242.404 313.039 244.144 311.588 247.236 311.588C249.093 311.588 250.034 312.149 249.731 313.078C249.187 314.746 245.047 315.706 243.804 314.452ZM1098.28 312.556C1095.15 309.399 1098.25 305.626 1103.97 305.626C1106.5 305.626 1106.5 305.647 1104.33 309.405C1101.79 313.786 1100.28 314.575 1098.28 312.556ZM253.564 312.31C253.564 312.053 254.361 311.533 255.336 311.156C256.31 310.778 257.107 310.989 257.107 311.625C257.107 312.26 256.31 312.78 255.336 312.78C254.361 312.78 253.564 312.569 253.564 312.31ZM202.509 303.764C202.144 303.397 199.651 303.065 196.968 303.027C193.267 302.976 192.379 302.608 193.287 301.504C194.165 300.437 192.905 299.016 188.563 296.176C180.049 290.607 175.296 289.518 169.576 291.829C164.213 293.995 163.803 294.056 163.803 292.692C163.803 290.197 173.202 287.452 179.971 287.972C186.444 288.469 190.068 289.859 202.778 296.723C213.225 302.365 213.236 302.375 209.864 303.346C206.035 304.449 203.338 304.601 202.509 303.764ZM211.045 293.703C213.335 292.21 214.589 292.21 214.589 293.703C214.589 294.359 213.393 294.887 211.931 294.877C209.782 294.863 209.613 294.637 211.045 293.703ZM1151.65 291.589C1150.94 291.112 1149.71 289.488 1148.92 287.979C1147.73 285.705 1147.86 284.6 1149.64 281.517C1152.39 276.756 1154.25 276.162 1155.15 279.758C1156.09 283.541 1153.37 292.736 1151.65 291.589ZM218.8 290C219.588 288.712 224.038 288.566 224.036 289.828C224.036 290.32 222.711 290.799 221.092 290.894C219.472 290.988 218.441 290.585 218.8 290ZM195.445 278.509C193.556 276.32 193.831 273.434 195.928 273.434C196.599 273.434 196.877 274.482 196.545 275.762C196.214 277.042 196.55 278.31 197.293 278.58C198.036 278.849 198.331 279.414 197.948 279.836C197.565 280.257 196.439 279.661 195.445 278.509ZM202.306 269.142C201.885 268.037 201.807 266.864 202.132 266.536C202.457 266.207 203.066 266.844 203.487 267.95C203.907 269.056 203.985 270.229 203.66 270.556C203.335 270.884 202.726 270.248 202.306 269.142ZM194.904 268.069C194.904 267.086 195.916 266.281 197.154 266.281C199.153 266.281 199.207 266.48 197.632 268.069C196.657 269.053 195.645 269.858 195.382 269.858C195.119 269.858 194.904 269.053 194.904 268.069ZM1185.43 241.93C1185.43 240.998 1184.14 238.686 1182.56 236.794C1178.82 232.303 1180.15 229.306 1184.58 232.238C1187.76 234.346 1189.43 238.653 1188.25 241.745C1187.36 244.09 1185.43 244.217 1185.43 241.93ZM268.918 234.756C268.918 234.467 269.449 233.899 270.099 233.493C270.749 233.088 271.28 233.325 271.28 234.019C271.28 234.714 270.749 235.282 270.099 235.282C269.449 235.282 268.918 235.046 268.918 234.756ZM1192.01 233.29C1191.25 231.276 1193.05 229.372 1195.76 229.339C1197.64 229.316 1197.68 231.981 1195.82 233.852C1193.9 235.795 1192.91 235.649 1192.01 233.29ZM1202.8 228.938C1200.51 225.406 1197.27 224.921 1189.85 227C1186.84 227.845 1184.76 227.854 1183.36 227.029C1182.22 226.362 1181.92 225.8 1182.68 225.78C1183.44 225.761 1185.67 224.384 1187.63 222.721C1190.15 220.577 1192 219.906 1194 220.411C1196.11 220.946 1198.39 219.922 1203.19 216.282C1212.53 209.194 1213.38 206.959 1209.58 199.386C1205.93 192.118 1206.95 189.778 1212.35 193.002C1216.29 195.348 1219.99 202.069 1218.92 204.903C1218.53 205.923 1219.11 209.123 1220.2 212.015C1221.75 216.109 1221.9 217.829 1220.86 219.777C1219.35 222.639 1215.13 224.551 1210.33 224.551C1207.64 224.551 1206.83 225.248 1205.95 228.343L1204.88 232.133L1202.8 228.938ZM724.339 224.869C722.929 223.446 723.679 222.167 725.923 222.167C727.184 222.167 728.544 221.631 728.945 220.975C730.043 219.182 731.915 219.541 731.205 221.41C730.477 223.326 725.363 225.903 724.339 224.869ZM684.065 222.806L680.521 221.168L685.246 221.088C691.13 220.988 695.464 222.101 694.611 223.494C693.661 225.047 688.131 224.685 684.065 222.806ZM636.353 210.913C631.627 208.47 631.404 208.165 633.872 207.513C636.827 206.734 643.368 207.704 643.235 208.903C643.189 209.313 642.79 210.537 642.349 211.622C641.623 213.407 641.048 213.339 636.353 210.913ZM612.68 198.014C611.658 195.053 611.739 193.921 613.067 192.58C615.468 190.156 617.334 191.859 617.334 196.476C617.334 201.929 614.371 202.908 612.68 198.014ZM584.985 199.004C585.823 196.801 589.417 196.427 588.694 198.62C588.423 199.439 587.318 200.283 586.237 200.494C584.867 200.763 584.488 200.312 584.985 199.004ZM1202.1 185.395C1199.94 182.331 1199.88 181.765 1201.47 179.465C1203.04 177.204 1203.04 176.527 1201.42 173.374C1198.76 168.187 1199.14 167.873 1203.74 171.42C1206.02 173.175 1210.52 175.398 1213.73 176.362C1220.38 178.354 1221.98 179.918 1218.52 181.028C1217.21 181.447 1216.14 182.569 1216.14 183.521C1216.14 184.818 1215.32 185.041 1212.89 184.413C1206.66 182.803 1204.89 183.197 1205.29 186.101C1205.78 189.659 1204.98 189.484 1202.1 185.395ZM614.578 186.797C613.208 185.414 613.725 183.103 615.562 182.391C616.842 181.896 617.334 182.521 617.334 184.647C617.334 187.509 616.178 188.411 614.578 186.797ZM1194.6 161.66C1193.6 160.512 1191.19 156.353 1189.24 152.417C1187.29 148.481 1182.13 141.254 1177.78 136.356C1172.92 130.883 1170.45 127.255 1171.37 126.944C1172.2 126.666 1173.97 127.913 1175.32 129.714C1178.56 134.084 1182.57 137.876 1188.88 142.573C1194.11 146.467 1196.7 150.07 1193.32 148.762C1189.43 147.253 1190.4 150.834 1195.44 156.562C1198.38 159.901 1200.78 162.883 1200.78 163.19C1200.78 164.639 1196.22 163.509 1194.6 161.66ZM330.334 159.573C330.334 158.589 330.848 157.784 331.478 157.784C332.107 157.784 332.316 158.589 331.942 159.573C331.568 160.556 331.053 161.361 330.798 161.361C330.543 161.361 330.334 160.556 330.334 159.573ZM324.162 155.726L319.762 155.259L328.042 146.984C332.596 142.432 336.917 138.708 337.644 138.708C338.412 138.708 338.182 139.584 337.096 140.796C334.637 143.538 336.314 146.619 340.807 147.616C342.769 148.051 344.724 149.568 345.479 151.242C346.692 153.929 346.487 154.202 342.395 155.349C338.102 156.554 332.977 156.659 324.162 155.726ZM36.3722 147.171C32.2812 143.314 31.8242 141.688 34.5372 140.637C36.9672 139.696 41.4512 142.764 43.1512 146.53C44.9352 150.483 44.9032 150.631 42.2772 150.631C41.0471 150.631 38.3892 149.074 36.3722 147.171ZM556.509 141.115C557.808 140.467 560.365 139.394 562.19 138.729C566.212 137.264 565.545 135.704 560.458 134.677C556.969 133.972 556.846 133.793 558.842 132.319C560.031 131.442 560.657 130.159 560.234 129.467C559.802 128.76 561.016 127.664 563.006 126.964C564.954 126.278 566.548 125.188 566.548 124.541C566.548 121.787 564.086 117.154 562.718 117.334C559.565 117.749 558.105 117.188 558.613 115.756C558.904 114.937 558.664 113.328 558.079 112.18C556.559 109.196 560.053 103.025 563.3 102.958C563.787 102.949 564.053 103.598 563.891 104.402C563.728 105.206 564.843 106.055 566.367 106.288L569.139 106.712L566.491 109.559L563.842 112.405L566.828 113.551C570.033 114.781 573.121 118.788 576.267 125.797C577.774 129.154 578.765 130.031 580.524 129.567C584.133 128.614 584.561 131.083 581.175 133.323C578.881 134.841 578.446 135.696 579.45 136.71C580.455 137.725 578.474 138.405 571.604 139.405C566.55 140.142 560.554 141.092 558.28 141.517C555.118 142.109 554.702 142.014 556.509 141.115ZM536.591 134.528C536.187 133.466 536.648 131.05 537.616 129.162C538.726 126.995 538.941 125.457 538.198 124.994C536.151 123.717 536.919 122.088 539.925 121.326C541.523 120.921 543.448 119.838 544.204 118.919C545.777 117.005 553.053 116.653 554.145 118.438C554.546 119.092 554.046 120.821 553.034 122.28C552.022 123.738 551.194 126.358 551.194 128.101C551.194 130.76 550.384 131.556 546.175 133.031C543.414 133.998 540.293 135.166 539.241 135.625C538.006 136.164 537.065 135.774 536.591 134.528ZM558.28 122.682C558.28 122.394 558.812 121.825 559.462 121.421C560.111 121.015 560.643 121.251 560.643 121.946C560.643 122.64 560.111 123.208 559.462 123.208C558.812 123.208 558.28 122.972 558.28 122.682ZM34.1212 116.938C32.9642 115.531 33.0372 114.875 34.4892 113.659C36.8892 111.648 38.0802 113.012 36.6832 116.172C35.7202 118.352 35.3692 118.457 34.1212 116.938ZM32.2742 107.971C31.8752 107.32 32.3402 106.124 33.3072 105.313C35.2272 103.705 35.6282 104.966 34.0142 107.538C33.3972 108.52 32.7142 108.691 32.2742 107.971ZM-44.0658 107.211C-44.0658 106.372 -40.4846 104.905 -35.4041 103.663C-33.4782 103.192 -32.3395 103.305 -32.7221 103.93C-33.0878 104.528 -34.8597 105.316 -36.6596 105.683C-38.4594 106.05 -40.8622 106.713 -41.999 107.157C-43.1357 107.601 -44.0658 107.625 -44.0658 107.211ZM657.786 93.8042C655.607 92.9168 655.992 91.5488 658.475 91.36C659.666 91.2695 660.64 91.9599 660.64 92.8946C660.64 94.6703 660.231 94.8005 657.786 93.8042ZM398.245 87.7106C390.771 83.5962 387.199 77.2749 389.364 71.9971C390.389 69.4992 390.42 67.9284 389.481 66.1559C387.525 62.4669 390.077 58.1436 396.602 54.0903C399.702 52.1651 402.796 49.5361 403.479 48.2481C405.371 44.6795 403.686 38.5643 400.394 37.0499C398.727 36.2835 397.821 35.0715 398.189 34.103C399.027 31.8974 395.095 24.3643 391.179 20.6733C388.296 17.9568 387.056 17.6863 377.186 17.621C363.746 17.5322 361.242 16.7779 361.464 12.8849C361.557 11.2678 361.912 9.94424 362.254 9.94374C362.595 9.94333 367.379 9.38367 372.883 8.70016C379.911 7.82746 386.213 6.02765 394.047 2.65528C406.176 -2.56604 407.1 -2.66807 436.04 -1.9814C445.178 -1.76456 453.585 -2.4473 464.385 -4.28333C474.443 -5.99316 481.844 -6.6377 485.84 -6.15189C489.235 -5.73911 494.151 -6.01137 496.927 -6.76585C503.368 -8.51669 520.103 -6.41059 526.685 -3.0208C530.576 -1.01679 532.635 -0.752165 539.201 -1.41206C546.294 -2.12487 546.83 -2.0311 544.698 -0.450543C543.399 0.512684 539.413 1.68931 535.84 2.16417C528.087 3.19464 520.964 8.77263 522.852 12.3342C523.666 13.8705 523.082 15.1818 520.449 17.7286C518.536 19.5791 516.69 21.9839 516.348 23.0726C515.525 25.688 505.084 30.5556 499.907 30.7371C494.157 30.9387 493.555 32.1727 498.002 34.6452C500.103 35.8133 503.169 37.8035 504.817 39.068L507.812 41.367L505.104 42.3781C503.028 43.1531 501.345 42.6535 497.891 40.2373C493.204 36.9584 488.161 36.9419 490.851 40.2142C491.9 41.4904 491.648 41.9861 489.684 42.5045C485.295 43.6631 488.4 45.9543 493.24 45.1287C496.321 44.6033 498.054 44.8802 499.017 46.052C500.163 47.4463 498.668 48.0918 490.066 49.917C484.386 51.1222 476.816 52.1523 473.243 52.2062C466.606 52.3063 461.823 54.2298 454.787 59.6281C452.493 61.3884 447.617 63.133 441.912 64.235C429.987 66.5382 425.957 69.2019 418.772 79.5302C413.001 87.8259 409.521 90.9179 405.922 90.9472C404.948 90.9552 401.493 89.4986 398.245 87.7106ZM314.502 79.7366C311.965 78.1634 308.857 75.2292 307.595 73.2163C305.13 69.2865 302.857 68.7872 296.203 70.7137C293.951 71.3658 291.423 71.4287 290.412 70.8577C286.915 68.8819 293.232 66.9387 300.268 67.8261C305.619 68.5009 306.807 68.3086 307.431 66.6672C308.685 63.3691 314.423 61.0055 317.613 62.473C319.577 63.3764 321.363 63.3512 323.871 62.3847C327.246 61.0844 327.293 60.967 325.088 59.333C323.827 58.3983 322.388 57.6337 321.89 57.6337C321.392 57.6337 319.594 55.2386 317.895 52.3112C316.195 49.3838 313.01 45.869 310.817 44.5004C307.089 42.1747 306.596 42.1338 303.261 43.8744C300.346 45.3961 298.662 45.5026 294.05 44.4572C290.946 43.7535 286.611 43.5166 284.418 43.9305C280.613 44.6487 273.642 42.7691 273.642 41.0252C273.642 37.8213 283.645 30.6309 289.587 29.5637L294.311 28.715L290.934 32.3471C286.276 37.3572 288.027 39.663 293.086 35.1795C295.232 33.2775 298.94 31.3516 301.327 30.8996C304.974 30.2089 306.537 30.6593 311.116 33.7214C317.21 37.7956 317.679 37.9049 321.115 36.0484C323.185 34.9305 323.952 35.2375 326.199 38.0823C327.753 40.0501 331.224 42.1927 334.609 43.2739C340.004 44.997 340.373 45.3718 340.373 49.1277C340.373 51.9442 341.177 53.7214 343.072 55.0891C350.998 60.8113 350.825 60.5749 349.11 63.3472C346.758 67.1483 344.902 67.4238 339.697 64.7434C336.076 62.8788 334.495 62.6231 332.672 63.6079C330.442 64.8128 330.418 65.0702 332.213 68.575C333.687 71.4514 333.821 72.9039 332.82 75.1223C331.586 77.856 331.39 77.8982 328.039 76.1494C321.453 72.7112 317.018 74.9736 323.162 78.6373C325.087 79.7852 326.394 81.1624 326.066 81.6979C324.922 83.5663 319.078 82.5752 314.502 79.7366ZM557.099 81.2804C557.099 80.7339 557.897 80.2868 558.871 80.2868C559.845 80.2868 560.643 80.7339 560.643 81.2804C560.643 81.8269 559.845 82.274 558.871 82.274C557.897 82.274 557.099 81.8269 557.099 81.2804ZM269.97 74.8684C267.641 73.6326 265.833 73.5268 262.572 74.4358C257.028 75.981 255.09 74.8502 257.903 71.7121C261.504 67.6949 263.947 66.9047 268.291 68.3519C273.18 69.9807 275.35 72.4018 274.031 74.7562C273.19 76.2572 272.616 76.273 269.97 74.8684ZM504.542 74.3254C502.593 73.032 500.112 72.2566 499.03 72.6024C497.538 73.0787 497.207 72.6653 497.665 70.898C498.368 68.1855 508.745 64.2705 512.253 65.3943C513.476 65.7862 516.602 65.464 519.199 64.6784C523.277 63.445 524.358 63.5384 527.115 65.3618L530.308 67.4736L527.464 69.711C525.063 71.5994 520.611 73.2379 509.857 76.1908C508.882 76.4584 506.49 75.619 504.542 74.3254ZM183.881 52.0688C182.257 51.8097 178.301 50.4074 175.09 48.9524L169.251 46.3072L177.452 45.711C181.962 45.3831 185.652 44.5783 185.652 43.9226C185.652 43.2668 182.463 42.4428 178.566 42.0913C173.42 41.6272 172.45 41.3008 175.023 40.8991C179.331 40.2264 179.641 38.3429 175.613 37.316C172.713 36.5765 172.734 36.5314 176.814 34.7567C183.885 31.6812 191.417 31.0921 198.09 33.0925C203.568 34.7349 204.424 34.7279 207.007 33.0194C208.834 31.8111 209.918 31.6089 210.012 32.4589C210.093 33.1901 210.226 34.4143 210.307 35.1793C210.581 37.7622 212.937 37.428 215.748 34.4073C218.351 31.6109 222.862 30.2714 222.852 32.298C222.849 32.7898 221.799 34.9285 220.517 37.0506L218.186 40.9091L221.998 42.9163L225.809 44.9236L219.551 47.8069C213.904 50.4087 212.746 50.5576 207.684 49.3318C202.776 48.1433 201.368 48.2792 196.423 50.419C190.838 52.8359 189.66 52.9908 183.881 52.0688ZM231.249 51.2288C230.182 49.9312 230.623 49.2927 233.38 48.1399C235.299 47.3376 238.051 47.07 239.526 47.5427C242.084 48.3623 242.025 48.4911 238.137 50.5816C233.176 53.2487 232.929 53.2719 231.249 51.2288ZM557.099 45.711C559.389 44.2171 560.643 44.2171 560.643 45.711C560.643 46.3667 559.447 46.895 557.985 46.885C555.836 46.8703 555.667 46.6456 557.099 45.711ZM773.826 42.4032C767.788 39.9955 767.912 40.1271 769.669 37.9901C770.49 36.9906 770.699 36.1557 770.132 36.1349C769.565 36.114 770.165 35.2862 771.464 34.2952C772.763 33.3042 773.835 32.1141 773.846 31.6505C773.887 29.887 778.696 25.2366 782.094 23.6738C784.042 22.7775 789.091 21.7673 793.314 21.4289C797.536 21.0905 803.192 20.4705 805.882 20.0512C808.745 19.6049 811.078 19.7874 811.509 20.4913C812.346 21.8591 810.748 22.4405 801.581 24.103C792.485 25.7527 787.017 28.3235 783.416 32.6438C779.622 37.1952 779.495 40.0689 782.979 42.5223L785.637 44.3937L782.094 44.3404C780.145 44.3111 776.424 43.4392 773.826 42.4032ZM155.245 38.9463C153.341 37.0235 153.775 36.6049 162.913 31.5547C173.621 25.6375 179.001 24.8521 188.605 27.8039L193.92 29.4373L186.833 30.8557C181.038 32.0158 168.756 36.1619 159.057 40.2322C158.068 40.6475 156.36 40.0713 155.245 38.9463ZM240.572 37.4031C240.572 36.7684 239.111 35.4021 237.324 34.3671L234.076 32.4852L238.425 33.1755C241.515 33.6661 243.054 33.3739 243.74 32.1661C244.556 30.7297 252.073 27.8554 255.071 27.8336C255.575 27.8295 255.163 29.4347 254.157 31.3997C251.786 36.0278 240.572 40.9836 240.572 37.4031ZM258.961 33.9219C257.269 31.1581 268.825 26.8798 273.735 28.4527C277.312 29.599 274.921 31.5688 268.68 32.6161C265.888 33.0847 262.727 33.845 261.656 34.3056C260.585 34.7663 259.372 34.5937 258.961 33.9219ZM296.673 25.1424C288.878 24.5165 282.355 23.8682 282.177 23.7018C281.121 22.7126 283.755 19.4926 286.59 18.3073C289.377 17.1418 290.661 17.2965 294.477 19.2569C298.196 21.1678 300.594 21.4854 307.503 20.9827C312.16 20.6439 317.475 20.751 319.314 21.2209L322.657 22.0751L318.523 24.3049C316.249 25.5313 313.592 26.4775 312.618 26.4076C311.643 26.3376 304.468 25.7684 296.673 25.1424ZM636.559 20.2697C630.757 17.2714 630.198 15.9116 634.755 15.886C636.541 15.876 638.8 15.2888 639.774 14.5813C641.306 13.4691 641.285 13.3782 639.623 13.9102C638.565 14.2487 637.082 13.9011 636.326 13.1384C635.281 12.0836 634.737 12.1023 634.055 13.2164C633.423 14.2478 632.127 14.3698 629.675 13.6286C623.447 11.7459 622.058 10.91 622.058 9.04318C622.058 7.46203 623.62 7.31717 633.279 8.0026C640.635 8.52451 644.499 8.37985 644.499 7.58246C644.499 5.23541 647.776 6.3943 648.645 9.04863L649.523 11.7313L650.046 9.04863C650.333 7.57327 651.329 6.36603 652.258 6.36603C653.187 6.36603 653.947 5.72228 653.947 4.93529C653.947 3.82254 654.262 3.82254 655.365 4.93529C656.189 5.76761 660.141 6.36603 664.813 6.36603C673.257 6.36603 675.24 7.89005 669.609 10.0515C666.682 11.1747 661.592 10.857 656.014 9.20288C654.877 8.86571 653.951 9.02844 653.955 9.56447C653.963 10.6648 660.599 14.712 662.395 14.712C663.038 14.712 664.31 15.4647 665.221 16.3845C666.643 17.8199 666.631 18.1528 665.137 18.7317C664.179 19.1027 663.396 18.8268 663.396 18.1187C663.396 17.2862 661.894 17.1156 659.146 17.636C656.17 18.1996 655.138 18.0449 655.704 17.1203C656.149 16.394 655.871 15.0185 655.085 14.0636C653.571 12.2214 649.223 11.6574 649.223 13.3031C649.223 13.8397 647.496 16.2067 645.385 18.5628L641.546 22.8468L636.559 20.2697ZM323.247 17.6469C321.2 16.4335 318.303 16.0821 313.799 16.5004C309.588 16.8914 306.351 16.5543 304.598 15.5423C302.181 14.1471 302.772 13.988 310.148 14.0484C319.372 14.1238 323.423 12.1305 318.428 9.97452C316.055 8.9503 316.401 8.85723 320.469 9.42617C325.779 10.1687 327.843 8.73246 324.95 6.30839C321.865 3.72351 325.257 2.92107 336.235 3.63902C343.028 4.08329 347.297 3.83415 349.042 2.8914C352.385 1.08543 351.073 -1.21352 347.252 -0.245436C344.611 0.423628 326.285 -0.674264 327.058 -1.45519C327.611 -2.01327 353.575 -4.44076 370.624 -5.52829C379.467 -6.09239 389.3 -6.87929 392.474 -7.27696L398.245 -8L388.718 -3.38019C379.785 0.951193 365.259 5.17383 359.291 5.17383C357.838 5.17383 353.662 6.78335 350.01 8.75063C346.358 10.7179 342.638 12.3274 341.743 12.3274C340.847 12.3274 336.984 13.9302 333.157 15.8892C329.331 17.8481 326.2 19.4386 326.2 19.4237C326.2 19.4087 324.871 18.6092 323.247 17.6469ZM300.216 6.75408C294.492 5.47557 294.282 4.99455 298.489 2.79378C304.62 -0.414121 310.422 -1.23632 313.06 0.728926C315.148 2.2849 315.027 2.52536 310.926 4.9684C306.651 7.51462 304.916 7.80384 300.216 6.75408Z" fill="#F1FEF4" stroke="#B2F2C4" stroke-opacity="0.84" stroke-width="2" stroke-dasharray="2 2"/>
</svg>
